<svg width="20" height="20" viewBox="0 0 20 20" fill="none" xmlns="http://www.w3.org/2000/svg">
<path d="M9.75 19.5C15.0965 19.5 19.5094 15.087 19.5094 9.75C19.5094 4.41296 15.087 0 9.74057 0C4.40353 0 0 4.41296 0 9.75C0 15.087 4.41296 19.5 9.75 19.5ZM9.75 17.5575C5.42191 17.5575 1.96132 14.0781 1.96132 9.75C1.96132 5.42191 5.42191 1.95189 9.74057 1.95189C14.0687 1.95189 17.5481 5.42191 17.5575 9.75C17.567 14.0781 14.0781 17.5575 9.75 17.5575ZM9.54255 11.6265C10.0612 11.6265 10.3912 11.3247 10.4195 10.9381C10.4195 10.9098 10.4195 10.8627 10.4289 10.825C10.4572 10.3441 10.7872 10.0235 11.4001 9.61799C12.3337 9.01451 12.9277 8.4676 12.9277 7.38322C12.9277 5.81794 11.5133 4.91272 9.83487 4.91272C8.22244 4.91272 7.1192 5.64821 6.82689 6.53457C6.77031 6.69487 6.73259 6.85517 6.73259 7.0249C6.73259 7.48694 7.09091 7.76983 7.52466 7.76983C8.081 7.76983 8.20358 7.48694 8.49589 7.16634C8.79763 6.69487 9.19367 6.42142 9.75 6.42142C10.4949 6.42142 10.9853 6.84574 10.9853 7.47751C10.9853 8.05271 10.5892 8.36388 9.78772 8.91078C9.11823 9.38225 8.6279 9.86315 8.6279 10.7118V10.8155C8.6279 11.353 8.95793 11.6265 9.54255 11.6265ZM9.52369 14.5213C10.1272 14.5213 10.6269 14.0875 10.6269 13.484C10.6269 12.89 10.1366 12.4468 9.52369 12.4468C8.91078 12.4468 8.41103 12.89 8.41103 13.484C8.41103 14.0781 8.91078 14.5213 9.52369 14.5213Z" fill="#1C1C1E"/>
</svg>
