
    <svg width="10" height="17" viewBox="0 0 10 17" fill="none" xmlns="http://www.w3.org/2000/svg">
      <path d="M0.347656 8.33789C0.347656 8.64551 0.461914 8.90918 0.708008 9.1377L7.5459 15.835C7.73926 16.0283 7.98535 16.1338 8.27539 16.1338C8.85547 16.1338 9.32129 15.6768 9.32129 15.0879C9.32129 14.7979 9.19824 14.543 9.00488 14.3408L2.84375 8.33789L9.00488 2.33496C9.19824 2.13281 9.32129 1.86914 9.32129 1.58789C9.32129 0.999023 8.85547 0.541992 8.27539 0.541992C7.98535 0.541992 7.73926 0.647461 7.5459 0.84082L0.708008 7.5293C0.461914 7.7666 0.347656 8.03027 0.347656 8.33789Z" fill="#1C1C1E"/>
    </svg>

  
 
  