<svg width="78" height="79" viewBox="0 0 78 79" fill="none" xmlns="http://www.w3.org/2000/svg">
<circle cx="39" cy="39.6836" r="30" fill="#101010"/>
<path fill-rule="evenodd" clip-rule="evenodd" d="M54.062 24.6216C57.3127 27.8722 57.3126 33.1915 54.0621 36.4422L47.108 43.3964C43.0046 47.4997 36.0288 46.2957 33.7942 41.1781C36.2474 39.0459 37.4437 39.7356 39.7811 40.7244C41.157 41.3062 42.7711 40.9947 43.8881 39.8776L50.6813 33.0846C52.1504 31.6154 52.1505 29.2113 50.6813 27.742C49.2123 26.2731 46.8069 26.2742 45.339 27.742L40.4664 32.6147C38.8543 31.8397 37.0404 31.61 35.3085 31.9263C35.6646 31.3228 36.0957 30.7668 36.5914 30.2715L42.2414 24.6216C45.4922 21.3711 50.8113 21.3708 54.062 24.6216ZM23.938 54.7455L23.938 54.7455C27.1888 57.9962 32.5079 57.9962 35.7585 54.7455L41.6157 48.8884C42.1293 48.3753 42.5735 47.7972 42.9367 47.1687C41.0312 47.6438 38.988 47.4431 37.1992 46.5668L32.4009 51.3649C30.9331 52.8326 28.5278 52.8341 27.0587 51.3649C25.5895 49.8958 25.5895 47.4918 27.0587 46.0227L33.8519 39.2294C35.2439 37.8374 38.022 37.4223 40.1216 39.3448C42.1539 39.1306 42.9432 38.7424 44.2056 37.5337C41.5123 32.7844 34.7988 32.0641 30.8921 35.9708L23.938 42.925C20.6873 46.1757 20.6873 51.4948 23.938 54.7455Z" fill="#FFED10"/>
</svg>
