<svg width="78" height="79" viewBox="0 0 78 79" fill="none" xmlns="http://www.w3.org/2000/svg">
<circle cx="39" cy="39.6836" r="29.5" fill="white" stroke="black"/>
<path fill-rule="evenodd" clip-rule="evenodd" d="M53.7153 28.1799H24.2847C23.8493 28.1799 23.4964 28.5329 23.4964 28.9683V51.1726C23.4964 51.608 23.8493 51.961 24.2847 51.961H53.7153C54.1507 51.961 54.5037 51.608 54.5037 51.1726V28.9683C54.5037 28.5329 54.1507 28.1799 53.7153 28.1799ZM24.2847 25.6836C22.4706 25.6836 21 27.1542 21 28.9683V51.1726C21 52.9867 22.4706 54.4573 24.2847 54.4573H53.7153C55.5294 54.4573 57 52.9867 57 51.1726V28.9683C57 27.1542 55.5294 25.6836 53.7153 25.6836H24.2847ZM33.0876 34.0924C33.0876 36.1242 31.4405 37.7712 29.4088 37.7712C27.377 37.7712 25.7299 36.1242 25.7299 34.0924C25.7299 32.0606 27.377 30.4136 29.4088 30.4136C31.4405 30.4136 33.0876 32.0606 33.0876 34.0924ZM25.8613 49.7274V46.0486L31.9051 40.1362L34.7957 43.0267L44.3869 33.4354L52.1387 41.3187V49.7274H25.8613Z" fill="black"/>
</svg>
