<svg width="78" height="79" viewBox="0 0 78 79" fill="none" xmlns="http://www.w3.org/2000/svg">
<circle cx="39" cy="39.6836" r="30" fill="#FFED10"/>
<path fill-rule="evenodd" clip-rule="evenodd" d="M56.4989 29.1811C56.498 28.2002 56.291 27.2304 55.8913 26.3347C55.4915 25.4389 54.908 24.6372 54.1785 23.9815C53.4489 23.3257 52.5898 22.8307 51.6566 22.5283C50.7235 22.226 49.7372 22.1231 48.7618 22.2264C47.7863 22.3297 46.8435 22.6369 45.9944 23.128C45.1453 23.6191 44.4089 24.2832 43.833 25.0772C43.257 25.8712 42.8543 26.7774 42.6511 27.737C42.4479 28.6966 42.4486 29.6882 42.6532 30.6475L33.7791 35.0837C32.866 34.035 31.6613 33.2819 30.3185 32.9207C28.9757 32.5594 27.5557 32.6063 26.2397 33.0553C24.9236 33.5042 23.7711 34.335 22.9291 35.4417C22.0871 36.5483 21.5938 37.8807 21.5121 39.2688C21.4304 40.657 21.764 42.038 22.4703 43.2358C23.1766 44.4336 24.2237 45.3938 25.478 45.9941C26.7323 46.5944 28.1369 46.8076 29.5129 46.6063C30.8888 46.4051 32.1735 45.7986 33.2034 44.8643L42.5307 49.5279C42.3722 51.2232 42.837 52.9181 43.8381 54.2954C44.8392 55.6727 46.308 56.6378 47.9694 57.0101C49.6309 57.3825 51.3711 57.1365 52.8643 56.3182C54.3574 55.4999 55.5011 54.1654 56.0812 52.5646C56.6613 50.9638 56.6381 49.2064 56.0158 47.6215C55.3935 46.0366 54.215 44.7329 52.7007 43.9544C51.1864 43.1759 49.4403 42.976 47.7893 43.3921C46.1382 43.8083 44.6955 44.812 43.7312 46.2152L35.1353 41.9173C35.5374 40.7244 35.6099 39.4451 35.3453 38.2144L44.2194 33.7782C45.1556 34.8536 46.3978 35.6175 47.7799 35.9677C49.162 36.3178 50.618 36.2376 51.9533 35.7377C53.2885 35.2378 54.4393 34.3421 55.2517 33.1704C56.064 31.9987 56.4991 30.6068 56.4989 29.1811Z" fill="black"/>
</svg>
