<svg width="100" height="100" viewBox="0 0 100 100" fill="none" xmlns="http://www.w3.org/2000/svg">
<path d="M62.8124 84.2141C62.6405 84.0413 62.4999 83.5238 62.4999 83.0639C62.4999 82.1467 63.1588 79.1112 63.4961 78.4741C63.8452 77.8149 65.474 69.5477 65.7321 67.125C65.8639 65.8875 66.0424 64.4813 66.1288 64C66.4321 62.3094 65.586 63.8825 65.1141 65.8866C64.8727 66.9115 64.5958 67.75 64.4987 67.75C64.4017 67.75 64.1304 68.6781 63.896 69.8125C63.6616 70.9469 63.3688 72.1 63.2453 72.375C63.1218 72.65 62.904 73.3353 62.7614 73.8978C62.4214 75.2385 61.7764 75.8072 60.7119 75.7051C60.0297 75.6396 59.854 75.5014 59.751 74.9486C59.6255 74.2756 59.6121 74.2824 57.1388 76.2611C55.7714 77.355 54.5412 78.25 54.4049 78.25C54.2686 78.25 53.9249 78.4666 53.641 78.7312C53.3572 78.9959 52.5064 79.4553 51.7505 79.752C50.9946 80.0487 50.2634 80.3811 50.1255 80.4906C49.5321 80.962 46.9062 81.4998 45.2114 81.497C41.7747 81.4918 38.7438 80.2064 36.2286 77.6882C34.0071 75.464 34.1449 75.6562 32.3293 72.25L31.7296 71.125L31.8893 72C31.9771 72.4813 32.1852 73.1 32.3517 73.375C32.5182 73.65 32.8505 74.4005 33.0903 75.0428C33.3301 75.6851 33.689 76.3458 33.8881 76.5109C34.0871 76.6761 34.2499 77.135 34.2499 77.5306C34.2499 78.1591 34.1575 78.25 33.5191 78.25C33.1043 78.25 32.4671 78.5203 32.0455 78.875C31.637 79.2188 31.0849 79.5 30.8187 79.5C30.5525 79.5 29.7944 79.7735 29.1341 80.1078C28.2778 80.5413 27.4234 80.7384 26.1542 80.7953L24.3749 80.875L24.2981 80.0825C24.252 79.6075 24.4649 78.8063 24.8295 78.0825C25.9868 75.7851 27.7051 69.0956 27.7725 66.625C27.8249 64.7036 28.0193 64.41 29.5108 64C30.261 63.7938 31.0436 63.515 31.2499 63.3805C31.4561 63.246 32.4567 62.709 33.4734 62.1872C34.4901 61.6654 35.6895 60.9317 36.1387 60.5568C36.5879 60.1818 37.3548 59.5938 37.8428 59.25C39.5953 58.0157 41.7477 53.9948 41.9403 51.5955C42.0198 50.6047 42.1977 49.9084 42.3902 49.8346C42.5653 49.7674 43.1944 49.8085 43.7883 49.9259L44.8681 50.1395L45.1381 52.1322C45.4121 54.1554 46.427 57.6505 47.142 59.0331C48.3539 61.3766 52.3481 63.5 55.5443 63.5C56.9371 63.5 59.2792 62.7505 61.2499 61.6741C63.142 60.6407 68.4999 55.233 68.4999 54.3568C68.4999 54.0094 68.6691 53.398 68.8758 52.9982C69.4416 51.9041 69.7598 48.1169 69.4648 45.988C69.2128 44.1697 69.004 43.6632 67.5634 41.375C66.236 39.2668 66.021 39.0289 64.6521 38.1532L63.327 37.3055L63.1476 31.9773C63.049 29.0468 62.882 26.495 62.7766 26.3067C62.6272 26.0396 62.3417 26.147 61.4791 26.7946C60.4138 27.5945 59.0713 28.4963 57.7425 29.3046C57.3947 29.5162 54.976 30.7849 52.3675 32.1241C49.7591 33.4632 47.4562 34.7058 47.2499 34.8853C47.0436 35.0649 46.2183 35.4572 45.4157 35.757C44.6132 36.0568 43.6569 36.4585 43.2907 36.6495L42.6249 36.9969L43.4055 36.9985C45.9557 37.0035 54.2092 32.8157 58.7986 29.188C59.7458 28.4393 60.2038 28.2376 60.8211 28.2976C61.5401 28.3674 61.6352 28.4741 61.7816 29.375C61.8709 29.925 61.9847 31.6125 62.0344 33.125L62.1249 35.875H58.1249C54.156 35.875 54.1101 35.8814 52.2221 36.6964C49.0994 38.0444 47.2981 40.0699 45.8862 43.8209C45.4111 45.0833 45.2499 45.9869 45.2499 47.3886C45.2499 48.8454 45.164 49.2987 44.8662 49.413C44.4411 49.5761 42.3087 49.0474 42.1126 48.7302C42.0442 48.6195 41.8704 47.8915 41.7264 47.1123C41.034 43.367 39.2318 40.6333 36.562 39.2788C35.9775 38.9822 34.8453 38.572 34.0461 38.3672C32.0457 37.8548 29.0246 38.3554 27.3253 39.481C25.8776 40.4399 25.3878 40.4808 25.6026 39.6249C25.6889 39.281 25.8233 38.4654 25.9014 37.8124C26.0735 36.3713 26.3897 35.4987 27.7375 32.7452C29.3256 29.5007 30.8366 27.2677 33.0797 24.8505C34.7114 23.0921 37.9899 20.25 38.3866 20.25C38.4999 20.25 38.8249 20.0397 39.1088 19.7827C40.0602 18.9212 44.819 17.2646 47.1742 16.9751C51.3723 16.4591 55.6921 16.4194 58.2553 16.8733C59.5586 17.1041 61.8355 17.3295 63.3151 17.3742C65.7034 17.4464 66.1905 17.5421 67.6546 18.2272C68.7187 18.7252 69.2594 19.1148 69.1785 19.3255C69.1082 19.5088 69.4456 19.9201 69.948 20.2635C71.322 21.2026 74.7017 24.4784 75.7374 25.875C76.7444 27.233 78.1181 30.9187 78.9763 34.5651C79.4234 36.4647 79.4983 37.6745 79.5411 43.6901C79.5856 49.9372 79.5351 50.9226 79.0315 53.625C78.1488 58.3624 77.7555 62.9594 77.7526 68.5725C77.7496 74.372 77.7297 74.4566 75.7465 77.1193C74.5809 78.6842 74.0665 79.1328 71.8749 80.4948C70.1778 81.5496 69.642 81.8943 68.2751 82.8112C66.3774 84.0843 63.4351 84.8398 62.8124 84.2141ZM52.5265 61.2558C50.682 60.2769 49.4255 59.2783 48.9618 58.4229C48.827 58.1743 48.388 56.8805 47.9862 55.5479C47.3055 53.2904 47.2554 52.8402 47.2528 48.9514L47.2499 44.7777L48.1113 42.9514C49.2157 40.61 50.3175 39.4137 52.093 38.6285C53.3789 38.0598 53.8287 38.0003 56.8195 38.003C59.886 38.0058 60.2041 38.0513 61.2206 38.6324C63.8461 40.1333 65.4957 41.8243 66.6928 44.2422L67.6249 46.125V49.625C67.6249 52.9 67.5818 53.217 66.9539 54.5566C65.6314 57.3785 63.3408 59.4849 59.6381 61.2844C57.9408 62.1093 57.4127 62.2491 56.0131 62.2434C54.5947 62.2377 54.1269 62.1052 52.5265 61.2558ZM27.3749 60.7545C25.0894 59.6229 23.5777 57.8604 23.0414 55.7018C22.6969 54.3153 22.67 51.2468 22.9833 49.081C23.3801 46.3382 25.5074 42.4985 27.28 41.3254C28.9009 40.2527 32.7905 39.6939 34.7499 40.2521C36.264 40.6834 37.8805 42.3925 38.7677 44.5C39.472 46.1729 39.5708 46.7143 39.6852 49.5232L39.8134 52.6714L38.888 54.7732C38.2128 56.3066 37.6314 57.1901 36.7381 58.0402C35.1361 59.5645 33.4949 60.6585 32.3207 60.9846C30.7673 61.4159 28.4976 61.3103 27.3749 60.7545Z" fill="white"/>
<path d="M60.7792 86.529C60.1413 85.8911 60.0863 84.5886 60.6106 82.5361C60.8089 81.76 61.0979 79.9531 61.2528 78.5207C61.4077 77.0884 61.691 75.4552 61.8825 74.8914C62.0739 74.3276 62.3548 73.2495 62.5067 72.4957C63.2788 68.6636 66.3322 60 66.9105 60C67.3776 60 65.154 75.5485 64.39 77.625C64.1877 78.175 64.0172 78.8075 64.0111 79.0306C64.0051 79.2537 63.7158 80.3072 63.3683 81.3717C62.6186 83.6686 62.7708 84.1095 64.2223 83.8454C65.2153 83.6646 68.3684 82.1654 68.6235 81.7526C68.7118 81.6098 69.1983 81.2683 69.7046 80.9938C70.7891 80.4059 71.2589 80.1114 72.587 79.1875C73.1305 78.8094 73.7133 78.5 73.8822 78.5C74.051 78.5 74.3693 78.2469 74.5894 77.9375C74.9378 77.448 74.9682 77.4399 74.824 77.875C74.5489 78.7046 72.1728 81.5434 70.3094 83.2686C68.832 84.6364 68.1704 85.0419 66.0912 85.8538C62.9589 87.077 61.5111 87.261 60.7792 86.529ZM41.9178 84.1136C39.2309 83.5795 37.6495 82.465 34.8389 79.125C32.3446 76.161 31.0154 72.5435 30.3605 66.9375C30.1472 65.1122 30.5519 65.0471 30.9293 66.846C31.2587 68.4168 33.3293 72.9232 34.5101 74.6394C35.5967 76.2188 37.6385 78.2458 38.8698 78.9675C40.9625 80.1942 43.4392 81 45.1168 81C48.8224 81 54.4241 78.1053 58.8096 73.9241C59.7779 73.001 60.1282 73.1691 60.1118 74.5493C60.096 75.8801 59.0543 77.475 56.6331 79.875C55.1116 81.3832 51.6571 83.6226 50.0103 84.1683C48.8144 84.5645 44.0233 84.5322 41.9178 84.1136ZM21.8712 82.9957C21.4279 82.5058 21.435 82.4288 22.1178 80.3082C22.5044 79.1074 23.0146 77.7312 23.2516 77.25C23.8707 75.9925 25.15 71.3328 26.0095 67.2053C26.4168 65.2487 26.7501 63.6107 26.7501 63.5651C26.7501 63.5195 26.2621 63.273 25.6657 63.0174C22.3977 61.6165 20.4947 57.4293 20.5044 51.6608C20.5134 46.3585 22.3249 42.3934 26.1012 39.4104C27.2956 38.4669 29.6567 37.7521 32.1251 37.5868C33.9697 37.4632 34.2514 37.5112 35.7501 38.204C37.7671 39.1363 39.2453 40.1992 40.1202 41.3463C40.8571 42.3125 42.0798 45.5017 42.3686 47.2112C42.5245 48.1343 42.6782 48.3499 43.3931 48.6486C43.8556 48.8419 44.3502 49 44.4921 49C44.6442 49 44.7501 48.3027 44.7501 47.3025C44.7501 41.9153 48.2469 37.0805 53.1251 35.7229C54.4962 35.3413 60.0039 35.2401 60.9376 35.5793C61.4905 35.7802 61.5001 35.7503 61.4984 33.8293C61.4959 31.1304 61.2239 28.5 60.9473 28.5C60.7116 28.5 59.0759 29.6585 58.6251 30.1447C58.4876 30.293 57.7564 30.7888 57.0001 31.2464C56.2439 31.7041 54.7118 32.6801 53.5956 33.4153C50.3273 35.568 46.9162 37.0093 43.9516 37.4904C42.1981 37.7749 39.0283 37.7866 37.8751 37.5127C37.1736 37.3461 37.206 37.3226 38.3751 37.1495C40.6885 36.8069 45.181 35.3707 46.4853 34.5567C47.4501 33.9547 51.8786 31.5524 54.7501 30.0733C58.3466 28.2208 59.5997 27.4752 60.5896 26.5988C62.0184 25.3338 62.6956 24.9614 62.9234 25.3153C63.1439 25.6579 63.3278 27.4592 63.7334 33.25C63.8899 35.4836 64.1157 37.1623 64.2665 37.213C65.9953 37.7944 69.2728 42.1523 69.7146 44.457C70.2627 47.3153 70.3255 50.2664 69.8726 51.875C69.6403 52.7 69.3868 53.6562 69.3093 54C69.106 54.9009 67.3673 57.36 65.8573 58.8821C64.203 60.5496 62.0468 62.0135 59.6074 63.1252C57.9054 63.9008 57.4521 64 55.6099 64C53.8732 64 53.203 63.8712 51.5269 63.2151C48.7173 62.1153 47.0662 60.6084 46.1811 58.3359C45.3029 56.0813 44.7584 53.685 44.7538 52.0546C44.7499 50.6667 44.734 50.6485 43.3126 50.4029L42.5001 50.2625L42.4999 51.6937C42.4997 53.2595 41.8211 54.9647 40.1779 57.5284C39.337 58.8403 37.9591 60.25 37.5175 60.25C37.4106 60.25 37.0056 60.5443 36.6175 60.904C35.083 62.3261 30.0874 64.727 29.0608 64.5358C28.6071 64.4513 28.3454 65.3485 28.1596 67.625C27.9445 70.2599 26.4595 76.0129 25.387 78.3663C24.9172 79.3972 24.618 80.2933 24.7221 80.3576C25.0939 80.5874 27.9424 80.0397 28.8999 79.5543C29.4363 79.2824 30.3814 78.9818 31.0001 78.8862L32.1251 78.7126L31.3751 79.3485C30.9626 79.6983 30.4075 80.0584 30.1414 80.1488C29.8754 80.2391 28.9754 80.7845 28.1414 81.3607C26.6785 82.3716 23.8788 83.5 22.8338 83.5C22.5554 83.5 22.1223 83.273 21.8712 82.9957ZM59.8867 60.5007C65.8076 57.1422 67.7704 53.6775 66.9973 47.9493C66.6716 45.5362 65.3145 42.5145 64.1715 41.6572C63.7811 41.3645 63.2173 40.8982 62.9185 40.621C62.6196 40.3438 61.8785 39.7813 61.2715 39.371C60.1809 38.6338 60.128 38.625 56.7715 38.625C53.6778 38.625 53.2704 38.6785 52.1995 39.2259C50.6638 40.0108 49.7353 41.0113 48.7108 42.985L47.8751 44.5951V49.11C47.8751 53.5974 47.8802 53.6395 48.7159 56C49.6748 58.709 50.2108 59.3333 52.7294 60.6745C54.2948 61.5082 54.4733 61.5459 56.3867 61.448C58.1038 61.3601 58.6162 61.2214 59.8867 60.5007ZM57.9376 57.0569C56.9981 56.856 57.4601 55.8584 59.215 54.2987C62.1239 51.7134 63.078 49.035 62.1061 46.1825C61.6441 44.8267 61.7113 43.9113 62.2808 43.8029C62.8952 43.6858 63.7446 45.345 64.147 47.4483C64.8041 50.8826 64.5273 52.7853 63.1063 54.602C62.0298 55.9785 59.1938 57.3254 57.9376 57.0569ZM32.431 60.2597C33.0117 59.9961 34.2642 59.2005 35.2142 58.4919C36.7417 57.3525 37.0662 56.9554 38.0178 55.061C38.9643 53.1771 39.1062 52.6749 39.1944 50.8969C39.4449 45.8518 37.6223 42.0651 34.3224 40.7745C33.0793 40.2883 32.9421 40.2828 31.3224 40.6543C27.4898 41.5334 26.518 42.2578 24.9371 45.4138C22.553 50.1731 22.7268 55.9008 25.3328 58.4584C27.5345 60.6193 30.1672 61.2873 32.431 60.2597ZM30.8751 57.0592C30.2327 56.914 29.7501 56.5199 29.7501 56.1404C29.7501 55.9762 30.4363 55.514 31.2749 55.1132C32.999 54.2891 33.7413 53.4644 35.1978 50.7546C36.3767 48.5614 36.9222 48.08 37.6367 48.6025C38.1063 48.9459 38.1069 48.9916 37.6661 50.6462C37.1211 52.6915 36.5072 53.9398 35.4598 55.1328C34.2591 56.5003 32.2108 57.3609 30.8751 57.0592ZM47.0684 74.9855C46.2299 74.729 45.6222 73.9441 45.8342 73.3916C45.924 73.1576 46.4467 73.1031 47.7909 73.1875C49.3103 73.2829 49.9363 73.1935 51.4376 72.6665L53.2501 72.0304V72.5934C53.2501 73.2223 52.2393 74.251 51.1783 74.7018C50.1824 75.1249 48.0133 75.2746 47.0684 74.9855ZM77.3596 74.9179C77.2617 74.6666 77.246 70.8416 77.3247 66.4179C77.4315 60.4156 77.5682 57.931 77.8636 56.625C78.8962 52.0595 79.0978 49.9609 79.0707 44.0585C79.0412 37.6371 78.8332 35.8223 77.7028 32.125C76.7245 28.9248 76.0732 27.3727 75.1855 26.125C73.9694 24.4159 69.5255 20.5068 68.0119 19.8147L66.6252 19.1806L67.5533 18.9427C68.3367 18.7419 68.702 18.8057 69.896 19.3524C70.674 19.7086 71.4478 20 71.6156 20C71.7833 20 72.9229 20.6927 74.1479 21.5394C79.2124 25.0398 80.3023 26.5423 81.5823 31.7893C82.6484 36.1594 82.8182 38.0544 82.693 44.1917C82.5918 49.1564 82.4903 50.2859 81.8899 53.125C81.5118 54.9125 81.0373 56.7687 80.8353 57.25C80.4859 58.0823 79.7023 61.4256 79.2239 64.125C79.102 64.8125 78.8289 67.2565 78.6169 69.5561C78.2318 73.733 77.7305 75.8708 77.3596 74.9179ZM41.1214 68.7203C39.6805 67.9542 37.781 66.5248 37.4959 65.992C37.3607 65.7395 37.2501 65.1991 37.2501 64.7911C37.2501 64.2128 37.4371 63.9391 38.0991 63.5485C39.2274 62.8828 40.8749 60.6489 41.2693 59.25C41.6394 57.9369 42.1522 57.25 42.7621 57.25C44.3055 57.25 43.3525 62.0153 41.387 64.1259L40.2719 65.3233L41.444 66.5463C42.8308 67.9933 43.089 68.4079 42.9039 68.8902C42.7149 69.3828 42.2916 69.3424 41.1214 68.7203ZM25.6586 38.1219C25.4308 37.5285 26.2425 34.4228 27.1933 32.25C30.2665 25.2262 32.4001 22.3147 36.4521 19.6151C41.2949 16.3887 43.7819 15.3277 47.8751 14.7416C48.9751 14.5841 50.5501 14.3058 51.3751 14.1232C55.0992 13.2989 59.7636 13.4876 61.844 14.5468C63.3225 15.2996 65.0001 16.7362 65.0001 17.2495C65.0001 18.1636 64.4972 18.2158 60.6251 17.7035C57.5133 17.2918 56.0243 17.2315 51.8751 17.3494C46.7321 17.4955 46.3493 17.5506 43.3751 18.5741C39.2155 20.0054 33.9573 24.1802 31.1882 28.25C29.7543 30.3574 27.1563 35.2908 26.5803 37C26.1219 38.3605 25.8685 38.6689 25.6586 38.1219Z" fill="black"/>
</svg>
