<svg width="100" height="100" viewBox="0 0 100 100" fill="none" xmlns="http://www.w3.org/2000/svg">
<path d="M42.8751 85.5255C42.04 85.3092 39.0699 83.3339 37.8069 82.1548C37.2285 81.6148 36.7207 81.3815 36.074 81.3591C35.3396 81.3336 34.9948 81.1349 34.3247 80.3512C32.6332 78.373 32.0001 77.2172 32.0001 76.1075C32.0001 75.4109 31.7379 74.5523 31.2308 73.5881C30.416 72.0393 29.7501 69.8469 29.7501 68.7131C29.7501 68.3373 29.3293 67.4112 28.8126 66.6501C27.8921 65.2941 27.2501 64.8761 27.2501 65.6328C27.2501 66.7844 25.1728 65.8177 24.036 64.1372C23.3221 63.0819 22.776 61.6122 22.7611 60.7064C22.7551 60.3387 22.3886 59.1574 21.9468 58.0814C20.4195 54.3621 20.976 50.6003 23.2789 49.0763C24.0735 48.5504 24.4265 48.4643 25.2486 48.5958C26.1301 48.7367 26.2501 48.6974 26.2501 48.2677C26.2501 47.9992 26.3537 47.7155 26.4803 47.6373C26.6069 47.559 27.114 46.2868 27.6072 44.81C28.1004 43.3333 29.0093 41.2402 29.627 40.1587C30.2447 39.0773 30.7501 38.1521 30.7501 38.1027C30.7501 38.0533 30.4116 37.8378 29.9978 37.6238C29.029 37.1228 28.097 35.2534 28.4692 34.5578C28.7724 33.9913 31.5976 33 32.9089 33C33.6274 33 34.0951 32.7507 35.2452 31.7542C36.8054 30.4027 39.2521 29 40.0494 29C40.3236 29 40.8466 28.7893 41.2115 28.5318C41.5765 28.2744 43.0564 27.5749 44.5001 26.9775L47.1251 25.8913L50.2501 25.9077C51.9689 25.9168 53.7689 25.955 54.2501 25.9927C54.7314 26.0304 56.3936 25.9842 57.9439 25.8901C60.6097 25.7283 60.8366 25.7529 62.1267 26.3436C66.6605 28.4192 73.3188 34.222 75.7689 38.2329C76.2605 39.0376 77.1269 41.1035 77.6941 42.8237L78.7255 45.9513L78.7641 50.2881C78.8116 55.6151 78.5251 56.9899 76.6621 60.375C76.5107 60.65 76.3192 62.0232 76.2365 63.4265C76.1065 65.6311 75.9774 66.192 75.287 67.5515C74.7887 68.5329 74.1556 69.3525 73.6049 69.7294C73.1192 70.0619 72.5649 70.7095 72.373 71.1685C71.8036 72.5313 70.1702 72.8731 68.2083 72.04C67.6126 71.787 66.7544 71.5075 66.3012 71.4189C65.4926 71.2609 65.4845 71.2682 65.8637 71.8096C66.0762 72.113 66.2501 72.6626 66.2501 73.0309C66.2501 73.8266 64.5753 76.1436 62.7991 77.805C61.4381 79.0781 57.6709 80.9828 55.0001 81.7482C52.6038 82.435 51.7368 82.7446 50.6251 83.3102C50.0751 83.5901 48.8939 84.1936 48.0001 84.6514C46.2819 85.5314 44.2418 85.8793 42.8751 85.5255ZM64.1235 71.2703C64.5727 71.095 64.5357 71.0321 63.7485 70.6327C63.2682 70.3891 62.6501 70.0082 62.3751 69.7863C62.1001 69.5644 62.1845 69.7247 62.5626 70.1426C62.9408 70.5605 63.2501 71.0368 63.2501 71.2012C63.2501 71.5377 63.4067 71.5501 64.1235 71.2703ZM37.9058 34.1185C38.4194 33.6425 38.5164 33.4162 38.2996 33.1994C37.9318 32.8317 37.0001 33.6128 37.0001 34.2887C37.0001 34.8899 37.0921 34.8726 37.9058 34.1185ZM27.9296 24.6875C26.3689 23.6087 25.9894 22.7429 25.9566 20.1872C25.9247 17.6909 26.3151 16.7634 27.6682 16.1213C28.4673 15.7421 28.7694 15.7183 29.6828 15.9626C30.2738 16.1207 31.1343 16.25 31.595 16.25C32.6737 16.25 33.4976 16.9119 34.2572 18.3886C35.2 20.2219 35.0559 21.1514 33.5041 23.2447C31.9916 25.2849 31.6759 25.5 30.194 25.5C29.3732 25.5 28.8156 25.2999 27.9296 24.6875ZM61.7246 15.1784C60.1714 14.1331 59.8226 11.2289 60.9454 8.69049C61.3563 7.76154 61.6376 7.48888 62.5403 7.14413C63.4837 6.78382 63.7712 6.77076 64.6068 7.05029C65.8631 7.4706 66.61 8.4745 66.5705 9.68962C66.4899 12.1622 66.313 13.6732 66.0462 14.1681C65.1905 15.755 63.2542 16.2076 61.7246 15.1784Z" fill="white"/>
<path d="M41.75 88.0593C41.4912 87.9875 41.1538 87.8526 40.4842 87.5677C38.7515 86.8308 36.0845 84.9612 34.4914 82.5001C34.0909 81.8813 33.6594 81.2517 33.5326 81.101C32.7004 80.1116 30.9006 75.8521 30.4874 74.492C30.2173 73.6027 30.0354 72.8931 29.9595 72.5939C29.8266 72.0695 29.3816 67.6028 29.6808 67.4179C29.8342 67.3231 29.9989 67.9132 30.1032 68.9315C30.1973 69.8495 30.4276 70.9436 30.6151 71.3628C30.8026 71.7821 31.0878 72.7359 31.3731 73.4376C31.6666 74.1595 31.9479 74.6278 32.0201 74.7501C32.1127 74.907 32.171 75.0675 32.266 75.2807C32.4312 75.6514 32.8147 76.3415 33.0251 76.7501C33.0542 76.8441 33.1764 76.9942 33.3072 77.1863C33.3719 77.2812 33.4292 77.3917 33.4972 77.5001C34.0433 78.3704 34.162 78.5478 36.7808 81.2862C38.5197 83.1044 39.396 83.7699 40.1343 83.9825C42.8655 84.7689 46.903 84.2808 48.7464 83.4194C49.8895 82.8853 50.6658 82.3478 51.75 81.7203C52.3442 81.3763 52.9105 81.1208 53.0032 81.0618C53.0976 81.0018 53.605 80.6796 54.1846 80.3713C54.7528 80.0691 55.1332 79.8087 55.2471 79.7276C55.4373 79.5406 57.2241 78.8909 57.3795 79.0463C57.5539 79.2206 56.6601 80.7862 56.499 81.0147C56.4355 81.1048 56.2562 81.3804 55.9488 81.8126C55.1499 82.9358 52.8827 85.6307 51.8209 86.1296C51.3007 86.374 50.8188 86.6566 50.75 86.7576C50.5766 87.0123 48.3831 87.6761 47.8143 87.8629C47.491 87.9691 47.2765 88.0086 47.0509 88.0731C46.9052 88.1147 46.1667 88.2501 44.5 88.2501C42.9875 88.2501 41.8511 88.0873 41.75 88.0593ZM61.5083 79.9555C61.5031 79.0606 61.6297 78.4061 61.8508 78.185C62.2217 77.8141 62.8449 75.9012 63.0462 75.3152C63.1203 75.0999 63.2229 74.9101 63.2771 74.801C63.3805 74.5928 63.4938 74.4059 63.5555 73.9853C63.6477 73.357 63.5523 73.1605 63.0214 72.8852C61.2203 71.9511 59.3059 69.1484 58.7453 66.6251C58.4661 65.3685 58.5143 64.3256 59.0486 60.0651C59.208 58.7946 59.2732 57.6899 59.1935 57.6103C59.1139 57.5306 58.8197 57.6085 58.5398 57.7833C57.9057 58.1792 56.9698 57.753 56.4853 56.8476C56.0727 56.0767 55.75 56.0849 55.75 56.8663C55.75 57.7906 54.9222 58.137 53.6874 57.7294C53.1426 57.5496 52.6405 57.2557 52.5717 57.0763C52.5028 56.8969 52.3179 56.7489 52.1608 56.7474C51.7616 56.7437 50.415 55.2647 50.0577 54.4376C49.8944 54.0595 49.6638 53.7501 49.5454 53.7501C49.4269 53.7501 49.181 53.2985 48.9988 52.7465C48.8167 52.1945 48.5174 51.6183 48.3338 51.4659C48.1502 51.3135 48 51.0339 48 50.8445C48 50.6551 47.8313 50.5001 47.625 50.5001C47.4188 50.5001 47.25 50.6635 47.25 50.8633C47.25 51.474 46.6885 52.5001 46.3543 52.5001C46.1808 52.5001 45.5911 51.9762 45.0437 51.3358L44.0485 50.1715L42.9268 50.4856C41.9573 50.757 41.6842 50.7423 40.9151 50.3774C40.4256 50.1451 39.9122 50.0249 39.7741 50.1102C39.3737 50.3577 38.25 49.98 38.25 49.598C38.25 49.4066 38.1375 49.2501 38 49.2501C37.8625 49.2501 37.75 49.4825 37.75 49.7665C37.75 50.0506 37.6319 50.5036 37.4876 50.7733C37.2459 51.2249 37.1472 51.1649 36.2376 50.0142C35.6944 49.327 35.25 48.6546 35.25 48.5199C35.25 48.3852 35.0965 48.185 34.9089 48.075C34.7212 47.9651 34.3702 47.4813 34.1287 47.0001C33.8873 46.5188 33.547 45.9563 33.3727 45.7501C32.9658 45.2688 32.6373 43.7501 32.9401 43.7501C33.0665 43.7501 33.3224 44.212 33.5088 44.7767C33.6951 45.3413 33.9944 45.8596 34.1738 45.9284C34.3532 45.9973 34.5 46.2021 34.5 46.3837C34.5 46.5653 34.7591 46.9188 35.0758 47.1694C35.3925 47.4201 35.7264 47.822 35.8179 48.0626C36.0843 48.7631 36.4617 48.5689 36.5467 47.6876C36.6156 46.9728 36.7229 46.8657 37.4392 46.7966C38 46.7426 38.3001 46.8399 38.4035 47.1091C38.5044 47.3721 38.8756 47.5001 39.5372 47.5001C40.1753 47.5001 40.7094 47.6757 41.0576 48.0001C41.6218 48.5257 42.862 48.6757 43.125 48.2501C43.3091 47.9522 44.5 47.9114 44.5 48.203C44.5 48.3145 44.7347 48.6577 45.0216 48.9657C45.6263 49.6147 46.013 49.4258 46.5034 48.2418C46.7359 47.6807 46.9736 47.5001 47.4801 47.5001C48.0221 47.5001 48.2117 47.6719 48.4758 48.4024C48.8076 49.3199 49.2825 50.0876 50.6248 51.876C52.0813 53.8168 53.0854 54.6161 54.6877 55.1104C55.216 55.2733 55.2342 55.2411 54.9846 54.5846C54.8384 54.2 54.6306 53.8267 54.5229 53.7552C54.4151 53.6836 54.2513 53.3157 54.1587 52.9376C54.031 52.4155 54.0818 52.2501 54.3702 52.2501C54.5791 52.2501 54.75 52.4199 54.75 52.6275C54.75 52.8351 54.975 53.1976 55.25 53.4331C55.525 53.6686 55.75 53.9847 55.75 54.1356C55.75 54.2865 56.0196 54.6444 56.3491 54.9309C57.0826 55.5686 57.5 55.268 57.5 54.1018C57.5 53.2563 57.8275 53.0001 58.9082 53.0001C59.373 53.0001 59.6126 53.2085 59.8778 53.8433C60.0716 54.3071 60.4389 54.7412 60.694 54.8079C61.0582 54.9031 61.1366 55.1117 61.0588 55.7781C60.9885 56.3804 61.1096 56.8 61.4758 57.2222C61.7597 57.5495 62.1289 58.1959 62.2962 58.6587C62.4635 59.1215 62.6903 59.5001 62.8002 59.5001C62.9101 59.5001 63 59.7272 63 60.0049C63 60.4291 62.8904 60.4831 62.3125 60.3434C61.9344 60.252 61.3264 59.9686 60.9614 59.7136C60.5964 59.4587 60.2308 59.2501 60.1489 59.2501C59.8912 59.2501 60.1956 62.3213 60.25 62.6251C60.2829 62.8091 60.3349 63.3425 60.4285 64.0304C60.6174 65.4197 61.1193 67.5804 61.6508 68.0215C61.8428 68.1809 62 68.4637 62 68.6499C62 68.8362 62.3094 69.1854 62.6875 69.4261C63.0656 69.6667 63.4313 69.9224 63.5 69.9943C63.8471 70.3575 64.8362 70.758 65.7446 70.9032C66.3037 70.9926 66.8215 71.1635 66.8953 71.2829C67.0987 71.6121 69.9755 71.5427 70.3425 71.1999C70.6026 70.9569 70.5534 70.7064 70.085 69.8874C69.5042 68.872 69.346 67.357 69.721 66.4016C69.8818 65.9917 70.0388 66.0994 70.8909 67.2035C71.4321 67.9049 71.9619 68.4836 72.0681 68.4894C72.457 68.5109 74.4639 66.456 74.8512 65.6399C75.4057 64.4715 75.383 62.1844 74.8125 61.7263C73.4191 60.6076 70.9052 60.3059 69.9769 61.146C69.5173 61.562 69.5 61.549 69.5 60.7888C69.5 59.4369 70.204 59.0001 72.383 59.0001C73.4913 59.0001 74.6353 59.1544 75.1636 59.3751C76.3905 59.8877 76.5 59.8583 76.5 59.0164C76.5 57.4163 75.0594 55.4147 73.6904 55.1127C73.3138 55.0296 72.9416 54.8578 72.8631 54.7309C72.6698 54.4181 70.5 54.4357 70.5 54.7501C70.5 54.8876 70.3257 55.0001 70.1126 55.0001C69.5372 55.0001 68.3043 55.6921 67.2884 56.5854C65.3258 58.3111 64.7353 59.0477 64.4451 60.1327C64.2808 60.7473 64.0571 61.2501 63.9482 61.2501C63.8392 61.2501 63.7365 62.1782 63.72 63.3126L63.6899 65.3751L63.3045 63.1386C63.0177 61.4743 62.9934 60.8773 63.2096 60.8052C63.3693 60.752 63.5 60.4405 63.5 60.113C63.5 59.4479 64.1697 57.3359 64.5174 56.9043C66.01 55.0522 66.0616 54.9617 65.7849 54.685C65.6126 54.5127 65.5 53.483 65.5 52.0802C65.5 49.8862 64.876 45.771 64.5023 45.5001C64.4074 45.4313 64.1219 44.5876 63.8678 43.6251C63.6137 42.6626 63.3379 41.8188 63.2549 41.7501C63.1719 41.6813 62.9501 41.147 62.762 40.5626C62.5739 39.9782 62.3536 39.5032 62.2725 39.507C62.1914 39.5109 61.7969 39.8484 61.3958 40.257C60.9948 40.6657 60.5584 41.0001 60.426 41.0001C60.1279 41.0001 60.4346 37.9768 60.7671 37.6376C61.0452 37.354 61.0791 36.5013 60.8125 36.4972C60.7094 36.4956 60.4017 36.0175 60.1288 35.4347C59.8559 34.8519 59.5746 34.3188 59.5038 34.2501C59.433 34.1813 59.1772 33.6975 58.9355 33.1749C58.1095 31.3891 57.0784 30.3826 54.2584 28.6094C53.5068 28.1368 53.0494 27.7501 53.242 27.7501C53.7322 27.7501 55.7236 28.7262 56.6486 29.4199C57.0741 29.739 57.5048 30.0001 57.6057 30.0001C58.0476 30.0001 60.59 32.9835 61.0677 34.0626C61.2351 34.4407 61.429 34.7484 61.4985 34.7463C61.904 34.734 62.2256 34.2247 62.565 33.0575C62.9344 31.7875 62.9299 31.7302 62.4403 31.4682C62.0935 31.2826 62.0251 31.1391 62.2247 31.0157C62.3854 30.9164 62.4423 30.6407 62.3511 30.4031C62.215 30.0484 62.31 29.9848 62.8819 30.0481C63.4647 30.1125 63.6182 30.0026 63.8214 29.3751C64.2015 28.2017 64.1809 20.8424 63.7934 19.3368C63.4873 18.1479 63.3936 18.0358 62.5775 17.8827C61.5327 17.6867 60.7272 17.089 59.5202 15.6141C59.1013 15.1023 58.6164 10.1657 58.8583 8.87618C58.9688 8.28696 59.2522 7.87938 59.7598 7.57956C60.1669 7.33906 60.5 7.06426 60.5 6.96889C60.5 6.87352 61.2767 6.6567 62.2259 6.48706C64.5971 6.06331 65.899 6.40414 67.24 7.79968C68.3841 8.99038 68.6275 9.85935 68.4293 12.0452C68.2687 13.8167 66.9221 16.6764 66.0625 17.0717C65.7531 17.214 65.5 17.4379 65.5 17.5694C65.5 17.7008 65.2633 17.7465 64.9741 17.6709C64.5165 17.5512 64.4647 17.6205 64.5753 18.2042C64.6453 18.5732 64.8918 19.3813 65.1231 20.0001C65.3544 20.6188 65.6475 21.7438 65.7743 22.5001C66.1052 24.4728 66.0939 28.9685 65.7539 30.6063L65.4633 32.0059L66.8225 33.5079C68.7173 35.6016 70.3208 38.94 70.9617 42.1251C71.6207 45.4 72.2229 48.7894 72.4489 50.495C72.6133 51.7359 72.7008 51.886 73.3777 52.0883C74.848 52.5277 76.7059 53.5243 77.0288 54.0466C77.4074 54.6593 77.5267 54.0175 77.6709 50.5918C77.7822 47.9477 77.7143 46.4725 77.3847 44.3751C77.147 42.8626 76.8704 41.5126 76.7701 41.3751C76.5938 41.1337 76 39.2316 76 38.9086C76 38.4476 76.4325 38.8759 76.8527 39.753C77.1155 40.3014 77.4159 40.7501 77.5204 40.7501C77.6248 40.7501 77.7882 41.1157 77.8835 41.5626C77.9788 42.0095 78.3309 43.2188 78.6659 44.2501C79.1604 45.772 79.3002 46.8313 79.4084 49.8751C79.4816 51.9376 79.4332 54.3563 79.3007 55.2501C79.1382 56.3453 79.1469 57.3493 79.3271 58.3296C79.6432 60.0484 79.2668 61.8911 78.4884 62.4364C78.0987 62.7093 78 63.0735 78 64.2386C78 65.3614 77.8251 66.0513 77.243 67.2244C76.8267 68.0636 76.3915 68.7501 76.276 68.7501C76.1604 68.7501 76.0076 69.1845 75.9364 69.7155C75.7407 71.1743 75.1224 71.8988 73.1604 72.9681C70.4926 74.4222 69.9124 74.5543 67.4751 74.263C66.3201 74.125 65.1219 73.94 64.8125 73.8519C64.3031 73.7069 64.4094 73.793 64.25 74.5993C64.155 75.0802 64.012 75.662 63.9558 75.941C63.9025 76.2055 63.6668 77.0041 63.5125 77.7729C63.3582 78.5417 63.0688 79.3854 62.8694 79.6479C62.6701 79.9104 62.2842 80.4063 62.0118 80.7501L61.5166 81.3751L61.5083 79.9555ZM69 52.7501C69 52.6126 69.1687 52.5001 69.375 52.5001C69.6811 52.5001 69.7467 52.0985 69.7318 50.3126C69.7217 49.1095 69.6179 47.5626 69.5011 46.8751C69.0366 44.1421 68.1991 40.3723 68.0299 40.2522C67.9313 40.1823 67.7093 39.6412 67.5364 39.0497C67.2214 37.9716 66.1403 35.7622 65.8042 35.5097C65.7056 35.4357 65.5045 35.1568 65.3571 34.89C64.9403 34.1351 64.535 34.147 64.3457 34.9198C64.2507 35.3077 64.1037 35.6813 64.0189 35.7501C63.9342 35.8188 63.7275 36.1876 63.5596 36.5695C63.2723 37.2232 63.4367 37.9414 64.0013 38.5001C64.2861 38.7818 65.7337 41.9289 65.8989 42.6251C65.9967 43.0376 66.2762 43.7518 66.5201 44.2122C66.7639 44.6727 67.1022 45.8258 67.2717 46.7747C67.4413 47.7237 67.6626 48.5001 67.7635 48.5001C67.8644 48.5001 68.0271 49.5126 68.125 50.7501C68.2573 52.4221 68.3926 53.0001 68.6515 53.0001C68.8432 53.0001 69 52.8876 69 52.7501ZM64.5604 14.3126C64.9201 13.9345 65.2908 13.3157 65.3843 12.9376C65.4777 12.5595 65.6545 12.2501 65.7771 12.2501C65.8997 12.2501 66 11.7464 66 11.1309C66 9.58241 65.3363 9.15451 63.1506 9.29368C60.9742 9.43227 60.75 9.6663 60.75 11.7999C60.75 13.3882 60.8132 13.6017 61.4808 14.2693C62.4609 15.2495 63.6533 15.2662 64.5604 14.3126ZM42.5045 79.8152C42.002 79.618 41.5 79.0946 41.5 78.768C41.5 78.6081 42.0871 78.5001 42.9555 78.5001C44.3344 78.5001 46.5965 77.9379 47.1125 77.4669C47.5757 77.0441 47.7157 77.259 47.3882 77.8902C47.2056 78.2423 46.6857 78.8611 46.233 79.2652C45.5417 79.8824 45.207 79.9969 44.1425 79.9804C43.4454 79.9695 42.7083 79.8952 42.5045 79.8152ZM37.9787 72.8152C36.9706 72.0657 35.75 70.4845 35.75 69.928C35.75 69.726 36.1001 69.4157 36.5281 69.2385C36.956 69.0612 38.031 68.1913 38.917 67.3054C40.5013 65.721 41.0917 65.4556 40.5685 66.563C40.4224 66.8721 40.1031 67.6876 39.8589 68.3751C39.6146 69.0626 39.2382 69.7559 39.0223 69.9157C38.6767 70.1716 38.7116 70.2822 39.3149 70.8413C40.0701 71.5412 40.1428 71.9132 39.7099 72.8633C39.348 73.6575 39.1024 73.6506 37.9787 72.8152ZM25.5755 67.8021C24.7828 67.3788 23.2885 65.0705 23 64.5813C22.8914 64.397 22.7633 64.1829 22.6492 63.935C22.4083 63.4117 21.7047 61.8086 21.4855 61.1388C21.3914 60.8511 21.2725 60.5056 21.1875 60.1877C21.1237 59.9489 20.875 58.9655 20.875 55.6043V51.1251L21.5895 49.9933C22.4061 48.6999 23.1793 48.2501 24.53 48.2501C25.3777 48.2501 25.4755 48.178 25.6315 47.4376C25.7257 46.9907 25.9538 46.2876 26.1385 45.8751C26.3232 45.4626 26.6589 44.3938 26.8845 43.5001C27.1101 42.6063 27.3825 41.7626 27.4898 41.6251C27.5971 41.4876 27.8189 40.9588 27.9827 40.4501C28.1465 39.9413 28.6713 39.182 29.149 38.7626C29.9237 38.0823 30.1901 38.0001 31.6189 38.0001C32.4998 38.0001 33.2844 38.1035 33.3625 38.2299C33.5735 38.5713 32.8556 39.1872 32.037 39.367C30.6532 39.6709 29.8858 41.2519 28.6961 46.2501C27.9651 49.3213 27.8682 50.654 28.3414 51.1273C28.7968 51.5826 29.1237 53.0672 28.898 53.6552C28.7784 53.967 28.5344 54.0305 27.8706 53.9228C27.0082 53.7829 27 53.7902 27.001 54.7033C27.0015 55.2103 27.1683 56.6376 27.3716 57.8751C27.8321 60.6782 27.8329 60.6187 27.3424 60.1283C26.8954 59.6812 26.1499 54.9216 26.3262 53.6403C26.3876 53.1942 26.2287 52.5689 25.922 52.049C25.6219 51.5405 25.4167 50.7473 25.4167 50.0963C25.4167 48.6876 24.8813 48.6355 23.5974 49.9194C22.73 50.7867 22.6643 50.9667 22.4338 53.1069C22.181 55.453 22.9458 59.8489 23.0285 60.3927C23.0563 60.5754 23.1963 61.1159 23.3037 61.431C23.3946 61.6976 23.5425 62.2891 24.0045 63.1346C24.9081 64.7878 26.5885 66.6373 27.6667 66.9079C27.9875 66.9884 28.25 67.1338 28.25 67.2309C28.25 67.3741 26.6204 68.2767 26.429 68.2396C26.3993 68.2338 26.0152 68.037 25.5755 67.8021ZM68.4102 67.4478C67.9205 65.6194 69.0915 61.7501 70.1346 61.7501C70.3981 61.7501 70.3932 61.8875 70.1093 62.4564C69.9155 62.8449 69.6229 64.0543 69.4591 65.144C69.2953 66.2336 69.0268 67.3266 68.8624 67.5728C68.5839 67.9901 68.5532 67.9816 68.4102 67.4478ZM33.7745 65.5581C32.8815 64.5425 32.5 63.4325 32.5 61.8496C32.5 59.6728 32.8987 58.6372 33.8724 58.2851C34.8758 57.9222 35.8398 58.2297 36.2722 59.0506C36.4387 59.3666 36.6945 59.7028 36.8407 59.7978C36.992 59.8961 37.1106 60.8655 37.1158 62.0478C37.1243 63.9617 37.066 64.2082 36.375 65.1823C35.4683 66.4603 34.6693 66.5758 33.7745 65.5581ZM48.74 64.7401C47.9507 63.9508 47.7497 63.1472 47.7537 60.7963C47.7577 58.4022 48.0526 57.5367 49.0226 57.0716C50.0666 56.571 51.0138 56.9936 51.6968 58.2648C52.5244 59.805 52.3874 62.1426 51.3749 63.7586C50.3306 65.4251 49.6708 65.6709 48.74 64.7401ZM29.9193 57.799C29.6042 57.4509 29.5 56.8627 29.5 55.4327C29.5 54.386 29.5977 53.4692 29.7171 53.3954C29.8365 53.3217 30.0134 52.5605 30.1103 51.7039C30.2746 50.2522 30.8851 48.2959 31.1027 48.5242C31.3369 48.77 30.8579 58.0903 30.6068 58.1734C30.4592 58.2223 30.1498 58.0538 29.9193 57.799ZM71.9402 44.8751C71.7205 43.1723 70.7466 38.6737 70.5367 38.3922C70.4272 38.2453 70.193 37.6209 70.0164 37.0047C69.8398 36.3885 69.481 35.612 69.2191 35.2791C68.4785 34.3375 68.9619 34.2714 69.7463 35.207C70.1299 35.6645 70.6406 36.677 70.8813 37.457C71.1219 38.2369 71.4052 38.9876 71.5109 39.1251C71.9765 39.731 72.5552 44.5798 72.2568 45.3751C72.108 45.7718 72.0426 45.6686 71.9402 44.8751ZM38.0037 37.8849C37.8751 37.5465 37.6943 36.7002 37.602 36.0043C37.5096 35.3083 37.3364 34.6785 37.2171 34.6047C37.0977 34.531 37 33.8651 37 33.1251C37 32.3851 36.9012 31.7185 36.7804 31.6439C36.5102 31.4769 35 32.2044 35 32.5016C35 32.6197 34.7948 32.7815 34.5441 32.8611C34.1117 32.9983 33.8652 33.1911 32.1562 34.7285C31.4418 35.3712 31.4396 35.3714 31.7812 34.7767C32.1865 34.0713 33.0914 33.1957 35.0625 31.6015C35.9114 30.9149 36.5 30.2419 36.5 29.9579C36.5 29.5596 35.4403 27.1882 34.3782 25.2098C34.0097 24.5234 33.6689 24.6476 33.1194 25.6686C32.8475 26.1738 32.1862 26.905 31.65 27.2936C30.2708 28.293 28.8806 28.2605 27.1072 27.1876C26.3685 26.7407 25.761 26.281 25.7571 26.166C25.7532 26.0509 25.414 25.4884 25.0033 24.916C24.1695 23.7537 23.846 22.1487 24.1017 20.4431C24.289 19.1944 25.8372 16.5854 26.5195 16.3689C26.7697 16.2895 27.0402 16.0174 27.1205 15.7642C27.3554 15.024 28.581 14.6708 30.4502 14.8046C32.199 14.9297 32.8234 15.1857 33.9943 16.2576C35.3198 17.4712 36.2334 20.3614 35.5369 21.1376C35.4196 21.2682 35.1786 21.9147 35.0011 22.5741C34.6935 23.7178 34.7068 23.8044 35.2887 24.4491C35.6243 24.8209 36.0531 25.4345 36.2417 25.8126C36.4302 26.1907 36.678 26.5001 36.7922 26.5001C36.9065 26.5001 37 26.6033 37 26.7294C37 26.8555 37.2212 27.4746 37.4915 28.1053L37.983 29.2519L39.179 28.6885C39.8368 28.3786 40.4312 28.0519 40.5 27.9625C40.5688 27.873 41.3 27.6063 42.125 27.3698C42.95 27.1333 43.7375 26.8546 43.875 26.7506C44.3147 26.4178 47.3704 25.7501 48.4535 25.7501C49.0291 25.7501 49.5 25.6376 49.5 25.5001C49.5 25.3473 50.6667 25.2501 52.5 25.2501C54.15 25.2501 55.5 25.3487 55.5 25.4691C55.5 25.5896 56.0906 25.7379 56.8125 25.7986C58.1932 25.9148 59.5248 26.4303 59.6803 26.9089C59.8227 27.347 58.1379 27.4615 55.5 27.1932C52.9952 26.9384 47.0695 27.1354 46.6323 27.488C46.4908 27.6022 45.475 27.8926 44.375 28.1335C43.275 28.3743 42.3188 28.6427 42.25 28.73C42.1812 28.8173 41.5063 29.0845 40.75 29.3238C38.5401 30.023 38.4348 30.165 38.7382 32.0349C39.0343 33.8598 39.0695 35.6735 38.841 37.3402C38.6651 38.6239 38.3601 38.8223 38.0037 37.8849ZM32.1746 22.6013C32.8143 22.0087 32.875 21.7996 32.875 20.1889V18.4253L31.875 17.8383C30.6758 17.1344 29.8382 17.2167 28.6015 18.1599C27.3979 19.078 27.2198 19.4949 27.5385 20.649C28.1742 22.9513 30.6646 24.0001 32.1746 22.6013ZM28.125 36.8976C26.36 35.9526 24.7879 34.7632 24.6248 34.2496C24.3479 33.3771 24.7122 32.7501 25.496 32.7501C25.8878 32.7501 26.2553 32.8907 26.3127 33.0626C26.4608 33.5064 30.4513 33.4833 30.7272 33.0371C30.8486 32.8405 31.2615 32.7494 31.7762 32.8056L32.625 32.8982L31.9375 33.193C31.5594 33.3551 31.25 33.603 31.25 33.7439C31.25 33.8848 31.1031 34.0001 30.9236 34.0001C30.744 34.0001 30.2439 34.2607 29.8122 34.5792L29.0272 35.1584L29.7545 35.588C30.1545 35.8243 30.6591 36.1949 30.8758 36.4116C31.2344 36.7702 31.2296 36.836 30.8224 37.1449C30.2055 37.6128 29.3069 37.5304 28.125 36.8976ZM69.25 30.7501C69.25 29.8869 69.6093 29.77 70.0028 30.5053C70.3093 31.078 70.1428 31.5001 69.6103 31.5001C69.3766 31.5001 69.25 31.2364 69.25 30.7501Z" fill="black"/>
</svg>
