<svg width="100" height="100" viewBox="0 0 100 100" fill="none" xmlns="http://www.w3.org/2000/svg">
<path d="M42.9635 88.0376C40.8156 87.4771 39.7126 86.6897 37.4413 84.0952C35.9651 82.4089 35.3442 81.4328 34.4001 79.3135C33.192 76.6019 32.0018 72.6892 32.0007 71.426C32.0001 70.8272 31.8118 70.6394 30.6875 70.1159C29.9657 69.7799 29.0072 69.5038 28.5576 69.5025C25.5829 69.4936 22.8894 64.7933 24.0127 61.5712C24.3914 60.4848 26.5194 59.1472 27.5921 59.3212C28.3844 59.4498 28.4024 59.4309 28.6988 58.1562C29.0908 56.4699 29.0899 55.2315 28.6967 55.3125C28.4749 55.3582 28.3841 54.6284 28.3591 52.5992C28.3403 51.0725 28.2452 49.6944 28.1477 49.5367C28.0503 49.379 28.0897 49.25 28.2353 49.25C28.3809 49.25 28.5 49.025 28.5 48.75C28.5 48.475 28.3492 48.25 28.165 48.25C27.9807 48.25 27.1444 47.9075 26.3065 47.4888C24.6052 46.6386 20.9349 43.0034 20.3398 41.5792C19.8458 40.397 19.9209 39.0701 20.5938 37.0917C21.4975 34.4348 21.8203 33.9496 24.2469 31.6007C26.4204 29.4968 28.6449 27.9114 29.8468 27.6098C30.3824 27.4753 30.44 27.2948 30.5852 25.2945C30.813 22.1572 31.3785 19.7077 31.9901 19.2099C32.2705 18.9816 32.5 18.4991 32.5 18.1375C32.5 17.675 32.9914 16.9462 34.1587 15.6776C36.0129 13.6625 38.1836 12.3447 41.125 11.4485C42.273 11.0987 43.1089 10.6656 43.5548 10.1895L44.2345 9.46375L47.9502 9.54438C51.4405 9.62012 51.7204 9.66292 52.5635 10.25C55.5481 12.3283 57.4666 13.7889 58.1138 14.4756C58.6158 15.0082 59.3865 15.4184 60.5187 15.7556C61.4351 16.0285 62.4526 16.4605 62.7799 16.7155C63.1072 16.9706 63.7125 17.3526 64.125 17.5645C65.0452 18.037 68.352 21.3672 69.1955 22.6709C69.5351 23.1957 70.4192 24.075 71.1602 24.625C72.8066 25.8469 74.4995 27.835 75.513 29.7365C75.9307 30.5201 76.7286 31.7134 77.2863 32.3883L78.3003 33.6153L78.202 36.3702C78.1103 38.9367 78.0465 39.2275 77.2686 40.625C76.8094 41.45 75.7455 42.8068 74.9044 43.6401C72.5972 45.9259 70.8519 48.0468 70.6673 48.7893C70.5765 49.1546 70.4334 49.6328 70.3493 49.8518C70.2265 50.1719 70.3781 50.25 71.1222 50.25C72.4159 50.25 73.4431 51.0716 74.2196 52.7274C75.0853 54.5734 75.1296 57.529 74.3306 60.125C74.0344 61.0875 73.7235 62.1872 73.6397 62.5689C73.5559 62.9505 73.2561 63.4939 72.9735 63.7766C72.5191 64.231 72.5041 64.3242 72.8436 64.5827C73.8206 65.3266 74.0741 67.9259 73.25 68.75C72.975 69.025 72.5532 69.2616 72.3125 69.2757C69.3715 69.4482 68.75 69.0881 68.75 67.2113C68.75 66.1129 68.6963 66 68.1731 66C67.7408 66 67.4863 66.2493 67.1572 66.9951C66.3089 68.9178 61.925 74.9134 60.7618 75.7417C60.3427 76.04 58.453 77.8391 56.5625 79.7396C54.6719 81.64 52.7875 83.3669 52.375 83.5771C51.2029 84.1742 49.6604 85.7196 49.3799 86.5779C48.7806 88.4114 46.4382 88.9443 42.9635 88.0376Z" fill="white"/>
<path d="M41.8752 89.902C40.5244 89.477 39.7878 89.068 38.7532 88.1688C37.896 87.4237 36.5002 85.6677 36.5002 85.3344C36.5002 85.2409 36.344 84.9868 36.1532 84.7697C35.9623 84.5527 35.503 83.7563 35.1325 83C34.762 82.2438 34.364 81.443 34.248 81.2205C33.8135 80.3871 32.7502 77.067 32.7502 76.5438C32.7502 75.8261 33.4196 75.8404 33.6319 76.5626C33.9032 77.4851 35.7827 81.3265 36.2924 82.0001C36.5525 82.3438 37.015 82.9538 37.3203 83.3556C39.6061 86.3646 41.6719 87.7501 43.8729 87.7501C46.867 87.7501 51.9439 84.2997 56.1252 79.4231C57.1024 78.2835 57.7558 77.9362 57.7446 78.5626C57.7416 78.7345 57.5191 79.1563 57.2502 79.5001C56.9813 79.8438 56.7588 80.2059 56.7558 80.3047C56.7478 80.5618 54.7629 83.4272 53.8752 84.4632C49.8472 89.1638 45.6193 91.08 41.8752 89.902ZM43.4897 81.4805C43.1052 80.762 43.335 80.3258 44.3135 79.9169C44.7728 79.725 45.4341 79.2287 45.7831 78.8139C46.6961 77.7288 48.7069 76.25 49.2693 76.25C49.5338 76.25 49.7502 76.2825 49.7502 76.3222C49.7502 76.8114 47.083 80.946 46.3752 81.5539C45.6311 82.1931 43.8468 82.1477 43.4897 81.4805ZM35.8212 75.3247C35.0017 75.1661 33.9501 73.8132 34.1379 73.1591C34.2222 72.8654 34.87 72.0907 35.5774 71.4375C36.9775 70.1448 36.9726 70.0015 35.5527 70.7184C34.1548 71.4241 31.9407 72 30.6252 72C29.3285 72 26.8349 71.3639 26.2502 70.8839C26.0439 70.7146 25.6935 70.5121 25.4715 70.4339C24.7303 70.1728 23.3058 68.141 22.9006 66.7672C22.3894 65.0336 22.3912 63.0769 22.9056 61.3072C23.2282 60.1977 23.6355 59.58 24.8968 58.2872C26.4777 56.6671 26.4819 56.6589 26.2561 55.6435C26.0478 54.7068 26.1251 53.6556 26.6453 50.3457C26.8045 49.3329 26.7936 49.3138 25.9661 49.1559C23.4209 48.6704 20.4556 46.3111 19.0988 43.6923C18.522 42.5788 18.3993 41.9818 18.3057 39.8327C18.206 37.5447 18.2536 37.1696 18.7816 36.0827C19.8181 33.9493 23.0045 30.4367 25.0875 29.1315C25.5207 28.86 26.0238 28.4943 26.2055 28.319C26.3872 28.1436 26.6293 28 26.7435 28C26.8577 28 27.1665 27.5851 27.4297 27.0779C27.8415 26.2843 28.6469 25.5598 28.4455 26.1641C28.4068 26.2801 28.4877 26.375 28.6252 26.375C28.7747 26.375 28.842 25.7217 28.7927 24.75C28.7239 23.3949 28.841 22.7929 29.4979 21.125C30.5691 18.4053 30.981 17.4425 31.2626 17C31.3939 16.7938 31.6024 16.394 31.726 16.1115C31.9544 15.5893 34.2149 13.1854 35.1252 12.4968C36.9446 11.1203 39.2833 9.93359 42.0002 9.00815C45.0875 7.95653 45.1568 7.94534 47.7502 8.08061C50.6638 8.23259 51.9364 8.60786 54.602 10.1012C56.5888 11.2141 57.3049 11.6882 59.3777 13.2621C60.9776 14.477 63.0926 15.8855 64.4703 16.6538C66.8462 17.9786 68.09 18.9082 69.6172 20.5001C70.4378 21.3556 71.7315 22.4898 72.4922 23.0206C74.2654 24.2581 74.455 24.4239 75.471 25.625C75.9362 26.175 77.0612 27.4568 77.971 28.4733C78.8808 29.4898 79.8613 30.6711 80.15 31.0983C81.0364 32.4102 81.5434 34.3663 81.5528 36.5105C81.5611 38.4211 81.505 38.6233 80.2878 41.0674C79.5872 42.4741 78.6029 44.2438 78.1005 45C77.3449 46.1373 77.1449 46.7208 76.9435 48.3751C76.7729 49.7757 76.5629 50.4951 76.2429 50.7757C75.8004 51.1636 75.8009 51.2012 76.2588 51.9541C76.8532 52.9316 77.5011 55.3941 77.4972 56.6611C77.4912 58.6859 76.5621 60.9965 74.9511 62.9945C74.2684 63.8413 74.022 64.75 74.4752 64.75C74.599 64.75 74.832 65.299 74.9929 65.97C75.5747 68.395 74.5534 70.1679 72.1664 70.8768C70.5479 71.3574 70.27 71.348 68.9135 70.7665C67.4797 70.1519 67.1375 69.5156 67.1829 67.5484C67.2311 65.458 68.0174 63.7501 68.9314 63.7501C69.5422 63.7501 69.5618 63.7958 69.4139 64.8751C69.3291 65.4938 69.3099 66.0001 69.3712 66.0001C69.4326 66.0001 69.8829 65.6487 70.372 65.2193C71.1527 64.5338 71.2423 64.3375 71.106 63.6108C70.9544 62.8029 70.973 62.7813 71.8884 62.7041C72.7933 62.6278 72.865 62.5492 73.9416 60.4536C74.9573 58.4767 75.058 58.1185 75.0664 56.4536C75.0773 54.3008 74.4557 52.6778 73.2229 51.6405L72.4331 50.9759L71.888 51.488C71.2358 52.1007 70.2501 52.1722 70.2501 51.6067C70.2501 51.0353 69.4002 51.2753 69.2897 51.8779C69.1514 52.6322 68.47 53.2743 67.8917 53.1955C67.4275 53.1322 67.3254 53.3721 66.8846 55.5625C66.4878 57.5346 66.3103 58 65.955 58C65.6432 58 65.5617 58.127 65.6738 58.4375C65.8733 58.9902 67.8115 61.8467 68.0626 61.9584C68.1658 62.0042 68.2501 62.2573 68.2501 62.5209C68.2501 62.9083 68.0698 63.0001 67.3087 63.0001C66.0055 63.0001 64.8075 62.2957 63.5943 60.8161C62.7657 59.8057 62.4775 59.173 62.1254 57.592C61.6825 55.6032 61.688 53.9643 62.1581 47.7919C62.2823 46.1613 62.2198 45.3883 61.8703 44.2341C61.3628 42.5581 61.1044 42.3912 59.0001 42.3814C57.7062 42.3754 57.6251 42.3386 57.6251 41.7574C57.6251 40.8222 58.5446 40.4665 60.7219 40.5594C62.5261 40.6364 62.5885 40.6611 63.4279 41.6316C63.9005 42.178 64.3491 42.9344 64.4249 43.3125C64.5012 43.6937 64.7288 44 64.9355 44C65.2062 44 65.2616 43.8458 65.1377 43.4375C65.0437 43.1282 64.8042 41.9971 64.6055 40.9241C64.2636 39.0789 63.6913 37.7501 63.2384 37.7501C63.1261 37.7501 62.1277 38.2024 61.0197 38.7553C59.9118 39.3081 58.751 39.8704 58.4402 40.0047C58.1294 40.139 57.7064 40.3459 57.5001 40.4644C55.4131 41.6643 54.2511 42.101 53.9491 41.799C53.6882 41.5382 53.7118 41.3332 54.0751 40.7001C54.4137 40.1101 54.4511 39.8556 54.2297 39.6484C54.0183 39.4505 53.9093 39.4515 53.8349 39.6521C53.7784 39.8044 53.5776 40.1405 53.3887 40.3988C53.0528 40.8581 53.0338 40.858 52.5227 40.3955C52.2353 40.1353 52.0001 40.0388 52.0001 40.1809C52.0001 40.3231 51.6708 40.5758 51.2682 40.7425C50.8657 40.9093 50.342 41.2604 50.1045 41.5229C49.6415 42.0344 48.7501 42.1731 48.7501 41.7336C48.7501 41.2407 49.2648 40.5 49.6072 40.5C49.7939 40.5 50.0114 40.3313 50.0905 40.125C50.1697 39.9188 50.3893 39.75 50.5785 39.75C50.7678 39.75 51.1263 39.525 51.3751 39.25C51.624 38.975 51.7113 38.75 51.5692 38.75C51.4271 38.75 51.1629 38.3844 50.9822 37.9375C50.8014 37.4906 50.5871 37.0688 50.506 37C50.2819 36.8101 48.9986 33.6691 48.9994 33.3125C48.9999 33.1179 48.6464 33.0001 48.0626 33.0002L47.1251 33.0003L47.1322 34.4128C47.1389 35.7498 46.8154 36.5 46.2323 36.5C45.9376 36.5 45.0002 35.572 45.0002 35.2803C45.0002 35.1595 44.6627 34.9209 44.2502 34.75C43.708 34.5255 43.5002 34.2711 43.5002 33.8323C43.5002 33.1615 42.8499 31.75 42.5409 31.75C42.1915 31.75 41.2502 32.7586 41.2502 33.1328C41.2502 33.4721 42.053 34.3101 43.1383 35.1037C43.5321 35.3917 43.5543 35.5086 43.2781 35.8413C42.8178 36.396 41.3808 36.6148 40.5254 36.2605C39.0051 35.6307 38.0293 33.9649 37.9714 31.9002L37.9427 30.875L37.7547 31.8501C37.6513 32.3864 37.6211 33.0333 37.6876 33.2876C37.7541 33.5419 37.6966 33.75 37.5599 33.75C37.185 33.75 36.8092 33.2 36.7057 32.5C36.6456 32.0935 36.4843 31.9109 36.2442 31.9776C36.0412 32.034 35.5939 32.0903 35.2502 32.1026C34.5419 32.128 34.3129 32.6047 34.2751 34.1319C34.2424 35.4542 34.7057 36.0618 36.2549 36.7282C37.3806 37.2125 37.5216 37.3554 37.453 37.9422C37.3367 38.9362 35.9069 39.4289 34.3794 39.0012C32.3717 38.4391 31.5002 37.1717 31.5002 34.8142C31.5002 33.622 31.1436 33.3946 30.8856 34.4223C30.5494 35.7621 28.8882 37.7392 28.0933 37.7457C27.0399 37.7542 26.6713 39.0841 27.1326 41.212C27.2908 41.9414 27.2546 42.0375 26.8509 41.9598C26.5962 41.9107 26.2496 41.5936 26.0809 41.2551C25.9121 40.9166 25.4488 40.3551 25.0514 40.0073C24.6539 39.6596 24.1839 38.925 24.0069 38.375C23.8298 37.825 23.6018 37.2625 23.5002 37.125C23.3985 36.9875 23.2388 36.45 23.1451 35.9306C22.9438 34.8135 22.7664 34.8767 21.8858 36.3794C20.9416 37.9906 20.9531 39.9883 21.9174 41.8928C23.4574 44.9343 26.4379 47.3682 28.993 47.6708C29.6925 47.7536 30.3233 47.9161 30.3948 48.0319C30.5524 48.2868 29.0362 49.2478 28.4742 49.2491C28.1274 49.2499 28.0715 49.692 28.0604 52.523C28.0476 55.7643 28.0527 55.7943 28.5863 55.6222C28.8827 55.5267 29.711 55.3172 30.427 55.1566L31.7288 54.8647L30.9923 54.3699C30.2423 53.8659 29.8733 53.2935 30.1318 53.035C30.2107 52.9561 30.804 53.0779 31.4502 53.3056C33.9049 54.1706 40.6938 54.0883 45.2639 53.1381C46.1501 52.9538 46.9214 52.8467 46.9778 52.9C47.2122 53.1214 46.1248 54.0021 45.2824 54.2732C44.7834 54.4338 44.2627 54.6513 44.1252 54.7565C43.6005 55.1581 40.015 55.6233 37.4375 55.6241C35.9592 55.6246 34.7498 55.6965 34.75 55.7838C34.7501 55.8711 35.0033 56.1105 35.3127 56.3157C36.7663 57.2802 38.1326 58.9706 39.0031 60.8814C39.4939 61.9588 39.5479 62.402 39.4427 64.4923C39.3618 66.1005 39.3968 66.6585 39.5502 66.209C39.7994 65.4788 40.4636 65.0777 40.6138 65.5667C41.2655 67.6896 40.6852 69.6841 38.8139 71.7519C38.0575 72.5878 37.4805 73.2973 37.5319 73.3287C37.5832 73.36 38.1314 73.6534 38.7502 73.9808C40.1071 74.6988 40.5002 74.9908 40.5002 75.2806C40.5002 75.4977 36.8906 75.5317 35.8212 75.3247ZM71.8752 68.6652C72.8356 68.1423 72.8752 68.0713 72.8752 66.8729C72.8752 65.6972 72.8399 65.629 72.2635 65.6933C71.9271 65.7309 71.4697 65.9264 71.2471 66.1278C71.0245 66.3293 70.4913 66.5643 70.0623 66.6501C69.1836 66.8259 68.9969 67.12 69.1744 68.0488C69.267 68.533 69.2521 68.5966 69.517 68.8568C69.6784 69.0154 69.7742 69.0828 70.0881 69.1296C70.6331 69.211 70.6546 69.3299 71.8752 68.6652ZM26.4975 67.1875C26.225 66.7407 26.0145 66.1194 25.9407 65.8273C25.8696 65.5462 25.8288 65.294 25.7985 65.1549C25.7421 64.8959 25.5924 63.3364 25.8349 62L25.9938 61.1251L25.5971 61.9967C25.0075 63.2925 25.2166 65.8514 26.0109 67.0595C26.7643 68.2054 27.1857 68.3163 26.4975 67.1875ZM65.9753 51.1414C66.0906 50.9949 66.2555 50.4813 66.3416 50.0001C66.4913 49.1637 66.4651 49.1239 65.7492 49.0984L65.0002 49.0718V52.1405C65.0002 56.0468 65.3039 56.9168 65.5679 53.7664C65.6766 52.4692 65.8599 51.288 65.9753 51.1414ZM75.2502 49.3728V48.2455L74.4 48.8028L73.5499 49.3601L74.3375 49.9178C74.7707 50.2246 75.1533 50.4811 75.1877 50.4878C75.222 50.4945 75.2502 49.9928 75.2502 49.3728ZM68.177 48.6905C68.1172 48.3795 68.066 48.5751 68.0632 49.1251C68.0605 49.6751 68.1094 49.9295 68.172 49.6905C68.2345 49.4514 68.2368 49.0014 68.177 48.6905ZM70.1727 43.5423C70.087 41.3655 69.9449 39.3967 69.8568 39.1673C69.7688 38.9378 69.4717 38.7501 69.1967 38.7501C68.8205 38.7501 68.74 38.8584 68.8717 39.1875C68.9679 39.4282 69.157 40.75 69.292 42.125C69.5667 44.9227 70.0013 47.5001 70.1985 47.5001C70.27 47.5001 70.2584 45.719 70.1727 43.5423ZM68.2104 46.5024C68.2883 45.969 68.2615 45.953 67.8979 46.3166C67.4244 46.7901 67.3713 47.3342 67.8127 47.1888C67.9846 47.1322 68.1635 46.8233 68.2104 46.5024ZM66.7683 41.3007C66.273 38.698 66.212 38.4941 65.9735 38.6415C65.6792 38.8234 65.6849 40.4302 65.9806 40.6129C66.1073 40.6912 66.2924 41.5135 66.392 42.4402C66.5465 43.877 66.611 44.0405 66.8302 43.5507C67.0116 43.1453 66.9933 42.4831 66.7683 41.3007ZM73.1324 37.3377C73.0524 36.9046 72.8263 36.417 72.63 36.254C72.3241 36.0002 72.3136 36.0771 72.5567 36.7914C72.7128 37.2499 72.9034 38.6376 72.9803 39.8751L73.1202 42.125L73.199 40.125C73.2424 39.025 73.2124 37.7707 73.1324 37.3377ZM71.3884 38.6876C71.1404 36.4916 70.9714 35.7501 70.7189 35.7501C70.4277 35.7501 70.4374 36.6817 70.7306 36.8629C70.8573 36.9412 71.0391 37.7354 71.1347 38.6277C71.2303 39.52 71.3661 40.25 71.4366 40.25C71.5071 40.25 71.4853 39.5469 71.3884 38.6876ZM75.7502 38.2353C75.7502 37.9684 75.6377 37.7501 75.5002 37.7501C75.3627 37.7501 75.2502 38.0379 75.2502 38.3898C75.2502 38.7526 75.3584 38.9627 75.5002 38.8751C75.6377 38.7901 75.7502 38.5022 75.7502 38.2353ZM24.9351 36.8867C24.7478 35.6083 24.7558 35.1232 24.9653 35.0533C25.1288 34.9989 25.2502 34.4158 25.2502 33.6856V32.4129L24.6295 32.996C23.7921 33.7827 23.6876 34.2282 24.0051 35.6584C24.2509 36.766 25.0236 38.8232 25.1412 38.6831C25.168 38.6512 25.0752 37.8428 24.9351 36.8867ZM58.307 37.7501C58.4386 37.7501 58.8324 37.5251 59.182 37.2501C59.621 36.9047 59.6977 36.75 59.4297 36.75C59.2164 36.75 58.9951 36.6097 58.9379 36.4381C58.8611 36.2078 58.5893 36.2569 57.8988 36.6256C56.6888 37.2718 56.422 37.6097 56.6226 38.242L56.7864 38.7579L57.427 38.254C57.7793 37.9768 58.1753 37.7501 58.307 37.7501ZM77.8795 37.6876C78.1007 36.5051 77.9206 34.1793 77.5997 34.0737C77.2896 33.9717 76.9449 37.1094 77.1711 37.9744C77.3736 38.7488 77.7062 38.6141 77.8795 37.6876ZM65.5002 37.3542C65.5002 37.1365 65.3666 37.0029 65.2033 37.0573C64.7398 37.2119 64.6629 37.7501 65.1044 37.7501C65.3221 37.7501 65.5002 37.5719 65.5002 37.3542ZM53.0041 35.5213C52.8514 34.6795 52.7955 33.879 52.8798 33.7426C52.9641 33.6061 52.6956 33.157 52.2831 32.7445C51.4378 31.8992 51.3106 31.9896 51.0909 33.5923C50.9566 34.5723 51.0248 34.8378 51.5942 35.5505C52.5248 36.7155 53.0697 37.2639 53.1836 37.15C53.2375 37.0961 53.1567 36.3632 53.0041 35.5213ZM29.1321 36.1875C29.5746 35.6828 30.2502 34.3985 30.2502 34.0623C30.2502 33.7963 28.9125 35.2806 28.5873 35.9074C28.1963 36.661 28.1813 36.75 28.4446 36.75C28.5516 36.75 28.861 36.4969 29.1321 36.1875ZM62.2483 35.3294C62.2517 34.7953 61.2822 34.7029 60.5032 35.1631C59.6999 35.6376 59.576 35.9758 60.0367 36.4365C60.252 36.6518 60.5621 36.5866 61.2847 36.174C61.8136 35.8721 62.2472 35.492 62.2483 35.3294ZM68.2502 35.625C68.2502 35.0063 68.1539 34.5 68.0362 34.5C67.9185 34.5 67.8465 34.9219 67.8762 35.4375C67.9439 36.611 67.9702 36.75 68.1252 36.75C68.194 36.75 68.2502 36.2438 68.2502 35.625ZM27.0002 33.6042C27.0002 31.7992 26.9231 31.2338 26.6877 31.3116C26.057 31.5198 26.2651 36 26.9055 36C26.9576 36 27.0002 34.9219 27.0002 33.6042ZM28.0625 35.3691C28.1289 35.0221 28.0857 34.6779 27.9667 34.6043C27.8476 34.5307 27.7502 34.8147 27.7502 35.2353C27.7502 36.1634 27.8985 36.2269 28.0625 35.3691ZM57.2502 35.3751C57.7161 35.0313 58.2305 34.7501 58.3932 34.7501C58.5559 34.7501 58.829 34.5813 59.0002 34.3751C59.4278 33.8598 59.2096 33.9028 57.9217 34.5876C56.3055 35.4469 55.5612 36.0001 56.021 36.0001C56.2311 36.0001 56.7843 35.7188 57.2502 35.3751ZM65.4318 34.4018C65.6449 34.1888 65.2181 33.2501 64.9082 33.2501C63.9967 33.2501 62.956 34.1225 63.3716 34.5382C63.5157 34.6823 65.2673 34.5664 65.4318 34.4018ZM28.2545 30.9651L27.7327 30.1251L27.8999 31.5001C27.9919 32.2563 28.1927 33.1001 28.3462 33.3751C28.5915 33.8147 28.6343 33.7502 28.7007 32.8401C28.753 32.1235 28.6157 31.5466 28.2545 30.9651ZM29.8427 31.737C29.6207 31.0926 29.5285 30.3028 29.6189 29.8205C29.7343 29.2056 29.6838 29.0001 29.4171 29.0001C28.6902 29.0001 28.4402 29.6589 28.8595 30.4697C29.0744 30.8853 29.2502 31.7183 29.2502 32.321C29.2502 33.6117 29.458 33.9215 29.9003 33.29C30.1629 32.9153 30.1525 32.6363 29.8427 31.737ZM67.6118 33.3662C68.2136 32.911 67.8545 32.4543 67.0584 32.6624C66.7301 32.7483 66.5002 33.0023 66.5002 33.2792C66.5002 33.8394 66.9405 33.8738 67.6118 33.3662ZM71.074 32.6876C71.0013 32.3095 70.7863 32.0001 70.5961 32.0001C70.1333 32.0001 70.1603 32.2876 70.6836 32.9325C71.2102 33.5815 71.2419 33.5616 71.074 32.6876ZM74.6252 33.2501C74.7102 33.1126 74.6606 33.0001 74.515 33.0001C74.3693 33.0001 74.2502 33.1126 74.2502 33.2501C74.2502 33.3876 74.2998 33.5001 74.3604 33.5001C74.421 33.5001 74.5402 33.3876 74.6252 33.2501ZM57.3851 30.062C57.3561 30.0273 56.6389 30.3454 55.7913 30.769C54.3403 31.4941 53.9215 32.0174 54.5043 32.3776C54.644 32.4639 54.6863 32.6674 54.5982 32.8298C54.51 32.9922 55.1129 32.45 55.9379 31.625C56.7628 30.8 57.4141 30.0967 57.3851 30.062ZM62.9091 32.3766C63.303 32.1712 63.8083 32.0024 64.0321 32.0016C64.2559 32.0008 64.579 31.8313 64.7502 31.625C65.0143 31.3069 64.9551 31.25 64.3597 31.25C63.5716 31.25 61.5002 32.1717 61.5002 32.5224C61.5002 32.8607 62.0999 32.7986 62.9091 32.3766ZM50.0002 31.7363C50.0002 31.4538 50.233 30.7116 50.5175 30.087C50.8021 29.4624 50.9858 28.9023 50.9258 28.8423C50.8658 28.7823 50.1825 29.2498 49.4074 29.8812C48.2225 30.8464 48.0377 31.103 48.2463 31.4928C48.7092 32.3577 50.0002 32.5369 50.0002 31.7363ZM31.1069 30.9616C31.3232 30.528 31.5002 29.5652 31.5002 28.822C31.5002 27.2251 31.9681 23.9815 32.2499 23.625C32.3587 23.4875 32.5846 22.3063 32.752 21C32.9195 19.6938 33.1844 18.5424 33.3408 18.4414C33.5432 18.3106 33.5329 18.2566 33.3049 18.2539C33.1287 18.2518 32.923 18.4469 32.8477 18.6875C32.7725 18.9282 32.5511 19.4237 32.3556 19.7886C31.9258 20.591 31.8958 21.25 32.2889 21.25C32.4625 21.25 32.4138 21.4312 32.1669 21.704C31.941 21.9536 31.684 22.5184 31.5959 22.9592C31.5077 23.3999 31.3376 23.821 31.2179 23.895C30.8977 24.0929 30.953 25.1806 31.3127 25.7611C31.516 26.0891 31.5379 26.3281 31.3752 26.4452C30.3785 27.1623 29.7501 31.75 30.6486 31.75C30.6843 31.75 30.8906 31.3953 31.1069 30.9616ZM42.3052 28.962C42.4256 27.4617 42.7838 26.5271 43.8476 24.9375C44.3906 24.1263 45.1805 24.028 45.2953 24.7574C45.3702 25.2331 45.4104 25.24 45.9377 24.8683C46.3967 24.5447 46.5002 24.2352 46.5002 23.1859C46.5002 22.1858 46.4335 21.9667 46.2002 22.2C45.7919 22.6084 45.5002 22.5771 45.5002 22.125C45.5002 21.7095 46.3645 20.75 46.7389 20.75C46.8701 20.75 47.0545 20.3282 47.1485 19.8125C47.2425 19.2969 47.5474 18.5504 47.8259 18.1537C48.2827 17.5032 48.3624 17.4733 48.6372 17.8492C48.9088 18.2206 48.9606 18.192 49.1127 17.586C49.2065 17.2119 49.4617 16.7755 49.6796 16.6162C49.9074 16.4496 49.9723 16.2623 49.8323 16.1758C49.6199 16.0445 48.1636 16.7105 45.0024 18.3846C43.6606 19.0952 41.9458 20.9601 41.0552 22.6773C40.6125 23.5311 40.2502 24.3293 40.2502 24.4511C40.2502 24.5729 40.6968 24.2478 41.2426 23.7286C42.5296 22.5042 44.359 21.25 44.8577 21.25C45.1064 21.25 45.2502 21.4721 45.2502 21.8559C45.2502 22.4514 44.55 23.4506 43.1824 24.8066C42.1547 25.8256 41.3553 27.4931 41.0054 29.3475C40.6052 31.4685 40.7634 31.9641 41.5802 31.1474C42.0448 30.6827 42.2061 30.1965 42.3052 28.962ZM35.9689 30.9128C36.1229 30.7272 36.3632 29.9679 36.503 29.2253C36.6427 28.4826 36.9118 27.5375 37.1008 27.125C37.2899 26.7125 37.5187 26.0938 37.6093 25.75C37.7614 25.173 37.7508 25.1634 37.471 25.625C37.3043 25.9 37.096 26.1813 37.0081 26.2501C36.6423 26.536 35.7695 28.5249 35.6188 29.4156C35.5296 29.9433 35.4025 30.5719 35.3365 30.8125C35.1943 31.331 35.5721 31.3909 35.9689 30.9128ZM67.2502 30.6518C67.2502 30.4603 67.0722 30.2353 66.8548 30.1518C66.2812 29.9317 66.2502 29.9495 66.2502 30.5C66.2502 30.8334 66.4169 31 66.7502 31C67.0252 31 67.2502 30.8433 67.2502 30.6518ZM73.171 29.9532C73.0912 29.7537 73.0319 29.813 73.0199 30.1042C73.0091 30.3678 73.0682 30.5154 73.1512 30.4323C73.2343 30.3493 73.2432 30.1336 73.171 29.9532ZM56.976 29.4722C57.8831 29.0444 58.6814 28.6225 58.7502 28.5347C58.819 28.4469 59.4939 28.0443 60.2502 27.6399C62.5599 26.4051 62.8719 25.6648 60.6252 26.75C60.0752 27.0157 59.4905 27.2369 59.3259 27.2416C58.742 27.2581 54.9465 29.4802 54.6315 29.9899C54.3335 30.472 55.3163 30.255 56.976 29.4722ZM69.5002 29.2705C69.5002 27.6317 69.9562 27.0415 70.5976 27.8498C71.0367 28.4031 72.0002 28.6098 72.0002 28.1507C72.0002 27.6479 71.2271 27.25 70.2502 27.25C68.6351 27.25 68.1047 28.1086 68.7903 29.6133C69.2105 30.5354 69.5002 30.3955 69.5002 29.2705ZM67.7502 29.5C67.7502 29.3626 67.6311 29.2501 67.4854 29.2501C67.3398 29.2501 67.2902 29.3626 67.3752 29.5C67.4602 29.6376 67.5793 29.75 67.64 29.75C67.7006 29.75 67.7502 29.6376 67.7502 29.5ZM49.5194 28.212C49.8737 27.8892 50.7075 27.2394 51.3723 26.768C52.6533 25.8597 54.0721 24.4886 53.9045 24.3211C53.6711 24.0876 48.6913 26.4887 48.3867 26.9815C48.3217 27.0867 48.1917 27.6529 48.0979 28.2397C47.939 29.233 47.96 29.2892 48.4012 29.0528C48.6619 28.9131 49.1651 28.5348 49.5194 28.212ZM66.1252 28.9532C66.6752 28.7914 67.2096 28.6795 67.3127 28.7046C67.4158 28.7296 67.5002 28.6451 67.5002 28.5169C67.5002 27.8682 64.8877 27.9557 63.9096 28.6371C63.4764 28.9389 63.4938 28.9689 64.1596 29.0683C64.5532 29.127 64.9314 29.1914 65.0002 29.2112C65.069 29.231 65.5752 29.1149 66.1252 28.9532ZM57.5918 26.5277C58.6735 25.9645 60.0235 25.3856 60.5918 25.2414C61.1602 25.0972 61.8502 24.8763 62.1252 24.7507C62.4002 24.625 63.1172 24.4321 63.7185 24.3219L64.8119 24.1218L64.1004 23.3109C63.2866 22.3835 62.5002 22.2346 62.5002 23.0079C62.5002 23.61 61.7857 23.9619 61.5004 23.5004C61.3453 23.2494 61.0952 23.3051 60.3738 23.7509C59.8638 24.0661 58.9977 24.356 58.4493 24.3951C57.9008 24.4341 57.2572 24.6425 57.019 24.8581C56.7807 25.0737 56.4632 25.25 56.3134 25.25C55.9586 25.25 55.0895 26.6676 54.8573 27.625C54.6827 28.3445 54.6947 28.3583 55.1503 27.9634C55.4115 27.7371 56.5102 27.091 57.5918 26.5277ZM46.0002 26.5863C46.0002 26.4014 45.9102 26.25 45.8002 26.25C45.4357 26.25 45.0002 26.8427 45.0002 27.3388C45.0002 27.8117 45.0164 27.8129 45.5002 27.375C45.7752 27.1262 46.0002 26.7712 46.0002 26.5863ZM64.6327 26.7362C64.7744 26.6228 65.4404 26.4378 66.1127 26.3251C66.7851 26.2124 67.3772 25.9941 67.4286 25.8399C67.5563 25.4569 66.3542 25.1875 65.4265 25.3912C64.631 25.566 64.5812 25.5961 63.3752 26.6317L62.6252 27.2757L63.5002 27.109C63.9815 27.0173 64.4911 26.8496 64.6327 26.7362ZM36.1755 25.1068C36.6978 24.2031 37.2377 23.2733 37.3752 23.0407C38.4664 21.1946 42.4566 16.0353 43.9322 14.5625C45.5425 12.9553 45.8545 12.7502 46.6867 12.7516C47.2029 12.7524 47.9346 12.9145 48.3127 13.1118C48.6908 13.309 49.0002 13.3721 49.0002 13.2521C49.0002 13.132 48.7991 12.9699 48.5533 12.8919C48.3075 12.8139 47.5628 12.1981 46.8983 11.5235C45.8415 10.4506 45.6079 10.3223 45.0327 10.4989C44.6711 10.61 43.558 10.9515 42.5593 11.2579C40.9561 11.7497 40.795 11.853 41.1843 12.1394C41.5851 12.4344 41.398 12.7008 39.1252 15.0703C37.7502 16.5038 36.4734 17.8692 36.2879 18.1044C35.6809 18.874 33.8101 22.8545 33.6345 23.75C33.5401 24.2313 33.4074 24.8219 33.3397 25.0625C33.2719 25.3032 33.3366 25.5 33.4834 25.5C33.6301 25.5 33.7502 25.3817 33.7502 25.237C33.7502 24.0585 38.0959 17.2304 39.8676 15.625C40.0194 15.4875 40.3923 15.0205 40.6963 14.5872C41.4136 13.565 43.7779 12 44.6051 12C45.5036 12 45.4279 12.652 44.508 12.836C43.7817 12.9812 43.5009 13.179 42.0761 14.5489C40.7499 15.8239 38.6682 18.3978 38.4256 19.0625C38.3378 19.3032 38.1499 19.5 38.008 19.5C37.8662 19.5 37.7502 19.6104 37.7502 19.7452C37.7502 19.88 37.3598 20.6007 36.8826 21.3466C35.5758 23.3894 34.3915 26.1219 34.6391 26.5226C34.9324 26.9971 35.2546 26.7001 36.1755 25.1068ZM69.6366 25.6493C69.9376 25.3484 69.9322 25.2774 69.5983 25.1493C69.3844 25.0672 68.9478 25 68.6282 25C68.1701 25 68.0747 25.1059 68.1778 25.5C68.3298 26.0816 69.1232 26.1628 69.6366 25.6493ZM57.9838 22.9047C58.1991 22.718 58.7127 22.447 59.1252 22.3024C59.5377 22.1578 59.7065 22.0338 59.5002 22.0268C59.2939 22.0198 58.394 22.3557 57.5002 22.7733C56.2296 23.367 56.0625 23.5011 56.7338 23.3883C57.206 23.309 57.7685 23.0914 57.9838 22.9047ZM67.7502 23.25C67.2655 22.9368 67.0002 22.9368 67.0002 23.25C67.0002 23.3875 67.2533 23.4983 67.5627 23.4962C68.0176 23.4931 68.0534 23.446 67.7502 23.25ZM49.861 21.6944C50.0751 21.3888 50.2502 20.9494 50.2502 20.7178C50.2502 20.1048 49.3324 20.4122 49.1517 21.0857C48.8141 22.3442 49.1837 22.6614 49.861 21.6944ZM61.5002 21.4018C61.5002 21.3478 61.3256 21.2365 61.1122 21.1547C60.8897 21.0693 60.7894 21.1112 60.877 21.2529C61.0238 21.4905 61.5002 21.6043 61.5002 21.4018ZM52.2502 20.0686C52.2502 19.285 52.1305 19.3756 51.9003 20.3335C51.7887 20.7982 51.8196 20.9866 51.9902 20.8812C52.1332 20.7929 52.2502 20.4272 52.2502 20.0686ZM35.6933 17C36.1856 16.3813 36.906 15.572 37.2943 15.2016C38.0803 14.4518 38.1882 14.1936 37.6252 14.4096C37.1695 14.5845 37.1349 14.2254 37.5627 13.7603C37.7346 13.5734 37.3429 13.7935 36.6923 14.2493C34.7081 15.6397 33.9617 16.624 33.8802 17.9576C33.841 18.5997 33.7262 19.4625 33.6251 19.875C33.4892 20.4295 33.6181 20.2991 34.1197 19.375C34.4929 18.6875 35.201 17.6188 35.6933 17ZM54.3752 19.8091C54.3752 19.0502 53.9155 19.1089 53.7053 19.8947C53.5688 20.405 53.618 20.514 53.9553 20.4491C54.1992 20.4021 54.3752 20.1339 54.3752 19.8091ZM56.5002 19.018C56.5002 18.9 56.343 18.7432 56.151 18.6695C55.9263 18.5833 55.761 18.7483 55.6877 19.1319C55.5891 19.6475 55.6365 19.6947 56.0369 19.4804C56.2917 19.344 56.5002 19.136 56.5002 19.018ZM51.5851 17.7346C52.2457 16.5593 52.2856 16 51.7089 16C51.1556 16 49.8318 18.1718 49.7692 19.1822C49.7265 19.8722 50.9169 18.9232 51.5851 17.7346ZM60.2502 18.3898C60.2502 18.3292 60.1377 18.21 60.0002 18.125C59.8627 18.0401 59.7502 18.0897 59.7502 18.2353C59.7502 18.3809 59.8627 18.5 60.0002 18.5C60.1377 18.5 60.2502 18.4504 60.2502 18.3898ZM58.1109 16.3955C57.5872 16.0126 57.3499 16.0547 57.6149 16.4834C57.7056 16.6301 57.9633 16.75 58.1877 16.75C58.529 16.75 58.5164 16.692 58.1109 16.3955ZM55.7596 15.7399C55.2836 15.333 54.6367 15 54.3221 15C53.5255 15 53.6056 15.4554 54.4377 15.6576C54.8158 15.7495 55.3471 15.9766 55.6183 16.1623C56.5319 16.788 56.6328 16.4862 55.7596 15.7399ZM48.8308 15.1218C49.34 14.765 49.3416 14.7504 48.8683 14.759C48.5971 14.764 48.0377 15.0493 47.6252 15.393L46.8752 16.018L47.5876 15.7557C47.9795 15.6115 48.5389 15.3262 48.8308 15.1218ZM46.975 14.3395C47.519 13.9585 47.5291 13.9111 47.1154 13.6796C46.7765 13.4899 46.5894 13.5399 46.3349 13.8879C45.679 14.7849 46.0079 15.0169 46.975 14.3395ZM39.7999 12.9888C40.7727 12.016 40.5817 11.8258 39.3442 12.5351C38.0628 13.2694 38.0855 13.243 38.5074 13.5098C39.0024 13.8229 38.9411 13.8476 39.7999 12.9888ZM53.5002 12.4932C53.1564 12.2206 52.4252 11.7752 51.8752 11.5036C50.8172 10.9811 47.5114 10.1555 47.3046 10.3623C47.1491 10.5178 48.3326 11.5518 48.6055 11.7457C48.6828 11.8567 48.994 12.0555 49.3189 12.1875C49.8563 12.4059 51.1451 12.8337 53.5002 12.9564L54.1252 12.9889L53.5002 12.4932ZM47.448 69.7932C44.8943 68.8861 42.7202 65.5814 42.5449 62.3401C42.4588 60.7495 42.5327 60.3783 43.224 58.93C44.1276 57.0366 45.9056 54.9534 47.0076 54.497C48.0899 54.0487 51.7902 54.3177 53.266 54.952C54.6489 55.5463 56.2476 57.2976 57.1597 59.2175C57.6927 60.3395 57.8314 61.0055 57.8434 62.5C57.8565 64.1403 57.7663 64.5315 57.1228 65.6251C56.1429 67.2904 54.246 69.1629 52.9371 69.757C51.6076 70.3605 49.092 70.3771 47.448 69.7932Z" fill="black"/>
</svg>
