<svg width="100" height="100" viewBox="0 0 100 100" fill="none" xmlns="http://www.w3.org/2000/svg">
<path d="M40.1252 87.1029C39.8502 87.0356 39.3768 86.9277 39.0731 86.8631C37.9303 86.62 35.5271 84.3177 32.1782 80.2577C32.0116 80.0557 31.7435 79.6382 31.5825 79.3298C31.4216 79.0215 31.1218 78.4555 30.9163 78.0721C30.2383 76.8065 29.0691 74.1418 28.7457 73.125C28.5709 72.575 28.3501 72.0687 28.2552 72C27.862 71.7152 26.4941 65.1183 26.3397 62.7623C26.1178 59.3755 25.7394 59.8505 25.5195 63.7918C25.361 66.6339 25.3217 66.8163 25.0169 66.125C24.4962 64.9441 24.244 60.6863 24.506 57.5C24.636 55.9187 24.7441 54.3806 24.7463 54.0818C24.7491 53.6865 24.9835 53.4618 25.6074 53.2558C26.3688 53.0046 26.4945 52.8333 26.7325 51.724C27.1058 49.983 27.4925 49.3241 29.6504 46.7522C32.2116 43.6996 32.5567 43.7316 32.9573 47.0588C33.2096 49.155 33.7421 50 34.811 50C35.4758 50 35.9056 49.694 37.3677 48.1795C40.2954 45.1471 41.2911 44.6215 41.6155 45.9375C42.1807 48.2311 43.4382 49.4967 45.5119 49.8591C46.6271 50.0541 47.3947 49.6438 48.4132 48.3086L49.224 47.2455L50.1121 48.4087C50.6006 49.0484 51.0002 49.7192 51.0002 49.8994C51.0002 50.3763 53.4891 52.8847 54.4253 53.3512C55.9237 54.098 57.4617 53.7578 58.7313 52.3987C59.0647 52.0419 59.473 51.75 59.6387 51.75C59.8044 51.75 60.3548 52.2562 60.8619 52.875C61.7477 53.9561 61.8365 54 63.1362 54C64.3088 54 64.5441 53.9155 64.9049 53.3647C65.4496 52.5335 65.0555 51.5813 64.0712 51.3505C63.6884 51.2607 62.9815 50.8143 62.5002 50.3585C60.5866 48.5459 58.4582 48.5432 56.7692 50.3512C56.4358 50.708 56.0705 51 55.9574 51C55.4932 51 53.6717 49.0792 53.1275 48.0158C52.8063 47.3884 51.9937 46.2653 51.3217 45.5201C50.2332 44.3131 49.9978 44.1691 49.1652 44.2004C48.0338 44.2429 47.4559 44.6218 46.463 45.972C45.3683 47.4605 45.1105 47.3496 44.0212 44.9218C43.3845 43.5026 43.1133 43.1673 42.3417 42.8449C40.7341 42.1732 38.5417 43.1415 35.8259 45.7228C35.1767 46.3399 35.143 46.2993 34.7607 44.4395C34.4008 42.6887 33.8714 42.2485 32.1321 42.2538C30.6237 42.2584 30.5507 42.3 28.538 44.2987L26.9508 45.875L27.1108 44C27.3236 41.5062 27.9903 37.8349 28.4149 36.8185C28.7076 36.1181 28.8814 36 29.6193 36C30.0936 36 31.0244 36.2139 31.6877 36.4753C32.351 36.7368 33.5645 37.0329 34.3845 37.1333C35.3173 37.2475 36.7173 37.7139 38.1252 38.3793C39.3627 38.9643 41.0669 39.5716 41.9123 39.729C42.7577 39.8864 44.5577 40.4686 45.9123 41.0228C47.2669 41.577 48.9377 42.2375 49.6252 42.4906C50.799 42.9226 52.0125 43.433 54.3752 44.4882C54.9252 44.7338 55.6565 45.0214 56.0002 45.1274C56.6366 45.3235 59.3203 46.7958 62.2502 48.556C63.144 49.093 64.6627 50.2006 65.6252 51.0174C66.5877 51.8342 67.8604 52.798 68.4534 53.1592C69.3686 53.7166 69.6256 53.7731 70.1527 53.533C70.9859 53.1533 71.0002 53.159 71.0002 53.8666C71.0002 54.2443 70.5589 54.9803 69.8616 55.7654C68.8964 56.8521 68.7345 57.1829 68.7991 57.9359C68.9273 59.4312 69.4696 59.4843 71.0946 58.1607C72.261 57.2107 72.7012 57 73.5197 57C74.3481 57 74.6897 57.1683 75.51 57.9804C76.4388 58.8999 76.5001 59.0512 76.4988 60.4179C76.4958 63.3393 75.4323 65.4205 72.3299 68.5736C70.5702 70.3622 70.0682 70.7218 68.6143 71.235C67.2743 71.7081 66.8394 71.7698 66.4702 71.5392C66.2154 71.3801 65.8425 71.25 65.6413 71.25C64.9968 71.25 61.9469 74.0159 59.5002 76.8192C55.6617 81.2174 53.0879 83.2399 48.4177 85.5282C45.4244 86.9948 45.2813 87.037 42.9843 87.13C41.6868 87.1825 40.4002 87.1703 40.1252 87.1029ZM71.9471 50.6234C71.8491 50.5199 72.0707 50.1155 72.4395 49.7248C73.4193 48.6867 74.2144 47.0737 74.5529 45.4375L74.8503 44H77.6284C80.0566 44 80.6864 44.0946 82.6295 44.7514C86.0462 45.9063 87.2502 46.9449 87.2502 48.7373C87.2502 49.3166 87.0972 49.5055 86.4377 49.7399C85.1452 50.1995 72.288 50.9834 71.9471 50.6234ZM68.0002 49.0662C66.1273 47.522 63.8251 45.9259 62.484 45.2417L61.5543 44.7674L62.0421 43.7815C62.7674 42.3156 63.4898 38.5026 63.6586 35.25C63.7756 32.9941 63.6918 31.6004 63.2695 28.7783C62.6455 24.609 62.4842 24.189 61.5478 24.2975C60.397 24.4308 60.2045 25.2797 60.092 30.7182C60.031 33.665 59.8426 36.3447 59.6204 37.4269C59.4168 38.418 59.2502 40.1336 59.2502 41.2394C59.2502 42.3452 59.1432 43.25 59.0123 43.25C58.8815 43.25 57.8409 42.8492 56.6998 42.3594C52.3242 40.481 51.8524 40.2941 51.0739 40.132C50.6331 40.0402 49.3394 39.5631 48.1989 39.0716C47.0584 38.5802 44.7752 37.8193 43.1252 37.3807C41.4752 36.9422 39.4502 36.2284 38.6252 35.7947C37.4921 35.1989 36.5917 34.9471 34.9435 34.7649C33.7436 34.6323 32.5416 34.4059 32.2724 34.2618C32.0033 34.1178 31.3257 34 30.7667 34C29.7845 34 29.7506 33.9726 29.7605 33.1875C29.7713 32.3375 30.0089 31.8219 32.2345 27.8195C33.9601 24.7163 35.0134 23.1847 36.4674 21.6642C39.9032 18.0714 45.8714 15.6351 52.5002 15.1194C55.403 14.8935 57.6339 15.393 60.437 16.8962C61.6405 17.5416 63.1537 18.3481 63.7995 18.6884C65.8496 19.7687 67.5102 21.6135 68.3557 23.75C68.6006 24.3687 69.2677 26.1687 69.8381 27.75L70.8752 30.625V36.75C70.8752 41.9967 70.7949 43.323 70.3153 46C70.0073 47.7187 69.7261 49.4132 69.6903 49.7654C69.6265 50.3933 69.5932 50.3795 68.0002 49.0662ZM62.3244 13.3915C61.1965 12.8324 60.2684 12.2982 60.2619 12.2045C60.2359 11.8259 61.8364 10.9408 62.7746 10.815C63.6311 10.7001 63.8821 10.7827 64.5129 11.3871C65.3532 12.1922 65.461 13.1096 64.8072 13.8915L64.3752 14.408L62.3244 13.3915Z" fill="white"/>
<path d="M38.6252 90.8986C36.3157 90.3278 35.7221 89.8759 31.9292 85.8012C29.8741 83.5934 29.3043 82.676 28.5384 80.3414C26.2788 73.4538 25.7539 71.0642 25.5761 66.858C25.4261 63.3091 25.5732 61.5 26.0115 61.5C26.1428 61.5 26.2523 61.9219 26.2548 62.4375C26.2634 64.2081 26.9961 68.5558 27.6285 70.5895C28.5861 73.6688 30.9209 78.6608 32.3224 80.625C33.8525 82.7695 37.3972 86.2693 38.6796 86.9016C39.4299 87.2715 40.2026 87.3686 42.4205 87.3714L45.2157 87.3752L48.5455 85.6969C53.7145 83.0916 54.8169 82.1827 61.5002 75.0162C64.0512 72.2808 65.3218 71.3515 66.1017 71.6507C67.0383 72.0101 66.7639 72.8636 64.2201 77.5044C63.1672 79.4253 59.0847 83.8006 56.6252 85.6439C54.1999 87.4617 48.6639 90.3389 46.3752 90.9711C45.0578 91.335 40.2074 91.2895 38.6252 90.8986ZM43.2502 82.5787C41.1334 82.1578 41.3505 80 43.5096 80C44.2224 80 44.9013 79.7298 46.0431 78.9919C47.6914 77.9265 48.5514 77.5976 48.986 77.8662C50.1676 78.5965 46.8642 82.3655 44.8426 82.5937C44.3105 82.6538 43.594 82.647 43.2502 82.5787ZM34.5581 72.4652C32.4145 70.7726 32.3995 69.4821 34.5114 68.4713C36.1338 67.6948 37.1708 66.5982 38.1226 64.6526C38.8152 63.2371 39.1519 63.0017 39.7002 63.55C40.1843 64.0341 40.0493 65.0219 39.2799 66.625C38.536 68.1752 38.1682 68.6443 36.7832 69.8092L35.9697 70.4934L36.5869 71.3092C36.9264 71.7579 37.2426 72.4062 37.2897 72.75C37.363 73.2859 37.2682 73.3843 36.6252 73.4401C36.0644 73.4888 35.5429 73.2428 34.5581 72.4652ZM72.0035 69.2464C72.9969 68.1443 73.9134 67.1786 74.0401 67.1003C74.4965 66.8183 75.6304 64.8447 76.1805 63.375C76.5145 62.4826 76.7436 61.305 76.7461 60.4677C76.7498 59.165 76.6768 58.9847 75.764 58.0441C74.4916 56.733 73.4517 56.5095 72.0206 57.2396C71.446 57.5327 70.9118 57.9394 70.8336 58.1432C70.601 58.7494 69.7751 59.0818 69.3592 58.7367C68.7572 58.2371 68.9306 57.1081 69.7326 56.3061C71.5802 54.4585 74.3249 54.0621 76.2716 55.3618C79.0694 57.2299 79.7678 58.3995 79.9338 61.4956C80.0419 63.5121 80.0064 63.7018 79.2651 65.0745C78.343 66.7821 76.8184 68.4822 75.2502 69.5516C74.0187 70.3915 71.774 71.25 70.8096 71.25C70.2591 71.25 70.3797 71.0476 72.0035 69.2464ZM53.5485 66.6508C52.8227 66.2624 52.3461 65.5571 51.9049 64.2186C50.598 60.2532 51.803 56.0347 54.2767 55.9158C55.0558 55.8783 55.1742 55.9739 55.725 57.0848C56.2482 58.1403 56.3279 58.6662 56.35 61.2098C56.3728 63.852 56.3167 64.2404 55.7502 65.3575C55.0639 66.7109 54.395 67.1039 53.5485 66.6508ZM32.4882 62.6875C31.3816 61.5165 30.9299 60.2183 30.8056 57.8525C30.6957 55.7601 30.7425 55.4531 31.3959 53.9775C31.7862 53.0961 32.2154 52.2991 32.3497 52.2063C32.6991 51.9649 34.4325 52.9064 34.7579 53.5143C35.8069 55.4745 35.9945 58.0047 35.2815 60.5762C34.5643 63.1627 33.6151 63.8801 32.4882 62.6875ZM72.6252 53.7841C72.0752 53.5339 71.468 53.1393 71.2758 52.9071C70.9502 52.5136 70.8943 52.5194 70.4536 52.9925C70.1935 53.2716 69.8652 53.5 69.724 53.5C69.179 53.5 68.1292 52.7721 65.1436 50.3242C63.4723 48.954 62.1979 48.1044 60.6435 47.3245C59.6709 46.8365 58.594 46.2407 58.2502 46.0005C57.6449 45.5775 52.1949 43.2344 48.6252 41.8625C47.6627 41.4926 46.4815 40.9909 46.0002 40.7475C45.519 40.5041 43.7752 39.9446 42.1252 39.5042C40.4752 39.0638 38.5627 38.3861 37.8752 37.9982C37.1877 37.6104 36.0627 37.2182 35.3752 37.1267C34.6877 37.0352 33.4502 36.7501 32.6252 36.4932C30.7844 35.92 28.9742 35.6692 28.5822 35.9332C28.1104 36.2508 26.7978 42.1915 26.7066 44.422L26.6229 46.4689L28.656 44.4845L30.6891 42.5H32.0947C33.8362 42.5 34.3657 42.9542 34.6061 44.6541C34.9257 46.9149 34.8446 46.8976 36.901 45.1429C39.0512 43.3082 40.0869 42.75 41.3404 42.75C42.4284 42.75 43.3158 43.6096 43.9211 45.25C44.4651 46.7241 44.6959 47 45.3848 47C45.7581 47 46.2435 46.6397 46.7757 45.9678C47.7663 44.7171 48.9529 44.1494 49.8576 44.4933C50.5117 44.742 52.4502 47.1844 53.2742 48.798C53.6823 49.5971 54.6372 50.5104 55.6776 51.0966C55.8498 51.1936 56.4189 50.8704 56.9995 50.3459C58.7938 48.7249 61.4078 48.982 62.6667 50.9033C62.8818 51.2315 63.2447 51.5 63.4733 51.5C64.1175 51.5 65.0002 52.2258 65.0002 52.7554C65.0002 53.8847 62.3861 54.1586 61.3638 53.1364C61.0263 52.7989 60.7502 52.4232 60.7502 52.3015C60.7502 52.1798 60.475 51.9549 60.1386 51.8016C59.5967 51.5547 59.3905 51.6356 58.3307 52.5115C57.397 53.283 56.9239 53.5 56.1759 53.5C54.4619 53.5 52.5426 52.0325 51.1562 49.6619C50.6397 48.7787 49.958 47.8126 49.6413 47.5152L49.0656 46.9743L48.1583 48.2371C47.2741 49.4679 47.2189 49.5 45.9882 49.5C43.8557 49.5 42.9467 48.8 42.0113 46.4375C41.6178 45.4437 41.3056 45 40.9999 45C40.5055 45 37.9782 46.9734 37.0062 48.1184C35.8519 49.4782 35.5049 49.75 34.923 49.75C33.772 49.75 33.4784 49.2463 33.1679 46.7389C32.8898 44.4926 32.844 44.3714 32.2483 44.3017C31.7465 44.2431 31.3212 44.5674 30.1169 45.9267C27.4821 48.9009 27.0093 49.6215 26.7077 51.123C26.342 52.944 25.6132 53.5454 24.587 52.873L23.9238 52.4384L24.0881 47.8913C24.2712 42.8228 24.872 39.7802 26.2883 36.75C26.9104 35.419 27.0569 34.7632 27.098 33.125C27.1376 31.5525 27.283 30.8578 27.7784 29.875C32.125 21.2521 32.9736 19.9908 36.0547 17.5738C38.7426 15.4651 41.3654 14.2052 46.0636 12.7656C49.3309 11.7644 52.2708 11.3993 55.5627 11.5859C57.1848 11.6779 58.2502 11.645 58.2502 11.5029C58.2502 10.965 59.9589 9.38009 61.1234 8.83783C63.6372 7.66723 65.6194 8.20384 67.3191 10.5151C67.986 11.4219 68.1104 11.8137 68.1172 13.0277C68.1242 14.2839 68.0322 14.5631 67.3909 15.233C66.9871 15.6549 66.7735 16 66.9162 16C67.059 16 67.8539 16.618 68.6828 17.3733C70.2762 18.8254 71.5493 20.7297 72.4445 23C75.0175 29.5255 75.1127 30.0126 75.1198 36.6804L75.1251 41.7358L76.1251 41.5603C76.6751 41.4637 78.2501 41.3842 79.6251 41.3835C81.8434 41.3824 82.3864 41.4775 84.4438 42.2276C87.1648 43.2195 88.6976 44.425 89.6782 46.3442C91.0304 48.9906 90.3311 51.2828 87.821 52.4319C86.7244 52.934 85.7169 53.1131 82.4239 53.3917C80.1971 53.58 77.7691 53.8502 77.0285 53.9921C75.0839 54.3645 73.7641 54.3022 72.6252 53.7841ZM74.564 50.8602C76.3852 50.8182 79.6911 50.6805 81.9106 50.5541C85.4061 50.355 86.0667 50.2497 86.8481 49.7668C87.3443 49.4601 87.7502 49.0154 87.7502 48.7786C87.7502 48.0686 86.3316 46.0549 85.5448 45.6481C83.1363 44.4026 81.382 43.9741 78.077 43.824L74.7788 43.6742L74.6244 44.3996C74.5395 44.7986 74.1768 45.9125 73.8185 46.875C73.1574 48.6504 71.6863 50.5 70.9352 50.5C70.2668 50.5 69.9245 49.8088 70.0984 48.8104C71.5999 40.192 71.6145 31.3311 70.1328 27.875C69.897 27.325 69.5331 26.3125 69.324 25.625C68.0485 21.4297 66.3038 19.6301 60.8409 16.875L56.8752 14.875L53.5002 14.8788C49.8728 14.883 48.712 15.1162 43.8752 16.8125C39.5804 18.3187 36.5117 20.6539 34.0444 24.2936C33.6087 24.9363 33.1344 25.7238 32.9905 26.0436C32.8465 26.3634 32.5929 26.85 32.427 27.125C30.1928 30.8269 29.5002 32.2609 29.5002 33.1854V34.1864L30.6877 34.3203C34.7803 34.782 37.1264 35.3073 38.7524 36.1261C39.6895 36.598 41.2307 37.1456 42.1771 37.343C43.1236 37.5403 44.9616 38.1164 46.2616 38.6231C47.5616 39.1299 49.1315 39.7122 49.7502 39.9172C51.5656 40.5186 57.2963 42.7703 58.2818 43.2694C58.7804 43.5219 59.2585 43.6584 59.3442 43.5726C59.43 43.4868 59.5023 42.676 59.5048 41.7708C59.5073 40.8656 59.6796 38.9437 59.8877 37.5C60.0958 36.0562 60.2694 33.1247 60.2736 30.9854C60.2817 26.8392 60.4735 25.4196 61.1115 24.7816C61.4108 24.4823 61.6138 24.4492 61.9295 24.6484C62.5027 25.0099 62.6198 25.5563 63.1357 30.2755C63.5193 33.7845 63.5402 34.7316 63.2817 36.8738C62.8192 40.7053 62.4809 42.2654 61.8293 43.5719C61.2416 44.75 61.2411 45.2499 61.8275 45.2501C62.4833 45.2504 65.8005 47.534 69.3368 50.4196C70.286 51.1942 70.6992 51.3961 70.9349 51.2004C71.1112 51.0541 72.7282 50.9026 74.564 50.8602ZM43.8716 32.9496C43.63 31.9871 44.1771 29.3052 44.9514 27.656C45.8423 25.7582 47.518 23.6618 50.1373 21.168C52.8794 18.5572 55.1292 17 56.1593 17C57.1877 17 57.4626 17.4139 56.6731 17.7737C56.035 18.0644 52.363 21.7564 49.3142 25.1725C46.9917 27.775 45.8844 29.4694 45.2391 31.4083C44.6242 33.2561 44.0975 33.8497 43.8716 32.9496ZM65.2556 13.7369C65.6403 12.8083 65.4335 12.0015 64.5962 11.1642C63.7577 10.3257 62.7065 10.3003 61.227 11.0827C59.6057 11.94 59.7687 12.3411 62.2502 13.6003C63.419 14.1934 64.5055 14.6303 64.6648 14.5713C64.8241 14.5123 65.09 14.1368 65.2556 13.7369Z" fill="black"/>
</svg>
